<?xml version="1.0" encoding="ISO8859-1"?>
<svg xmlns="http://www.w3.org/2000/svg" xmlns:xlink="http://www.w3.org/1999/xlink" width="288px" height="338.4px" viewBox="0 0 288 338.4" version="1.1" id="Fig:dens">
  <metadata xmlns:gridsvg="http://www.stat.auckland.ac.nz/~paul/R/gridSVG/">
    <gridsvg:generator name="gridSVG" version="1.7-1" time="2020-04-25 15:43:49"/>
    <gridsvg:argument name="name" value="C:/Bea/Master/Datos omicos Bea/PEC1/arrayQMcel/dens.svg"/>
    <gridsvg:argument name="exportCoords" value="none"/>
    <gridsvg:argument name="exportMappings" value="none"/>
    <gridsvg:argument name="exportJS" value="none"/>
    <gridsvg:argument name="res" value="72"/>
    <gridsvg:argument name="prefix" value="Fig:dens"/>
    <gridsvg:argument name="addClasses" value="FALSE"/>
    <gridsvg:argument name="indent" value="TRUE"/>
    <gridsvg:argument name="htmlWrapper" value="FALSE"/>
    <gridsvg:argument name="usePaths" value="none"/>
    <gridsvg:argument name="uniqueNames" value="TRUE"/>
    <gridsvg:separator name="id.sep" value="."/>
    <gridsvg:separator name="gPath.sep" value="::"/>
    <gridsvg:separator name="vpPath.sep" value="::"/>
  </metadata>
  <g transform="translate(0, 338.4) scale(1, -1)">
    <g id="Fig:densgridSVG" fill="none" stroke="rgb(0,0,0)" stroke-dasharray="none" stroke-width="0.75" font-size="12" font-family="Helvetica, Arial, FreeSans, Liberation Sans, Nimbus Sans L, sans-serif" opacity="1" stroke-linecap="round" stroke-linejoin="round" stroke-miterlimit="10" stroke-opacity="1" fill-opacity="0" font-weight="normal" font-style="normal">
      <g id="Fig:densplot_01.background.1">
        <rect id="Fig:densplot_01.background.1.1" x="0" y="0" width="288" height="338.4" transform="" fill="none" stroke="none" stroke-opacity="0" fill-opacity="0"/>
      </g>
      <g id="Fig:densplot_01.toplevel.vp.1" font-size="12">
        <g id="Fig:densplot_01.main.vp.1">
          <g id="Fig:densGRID.VP.629.1">
            <g id="Fig:densplot_01.key.frame.1">
              <g id="Fig:densGRID.VP.630.1">
                <g id="Fig:densGRID.cellGrob.1175.1">
                  <g id="Fig:densplot_01.key.background.1">
                    <rect id="Fig:densplot_01.key.background.1.1" x="110.64" y="263.42" width="66.72" height="68.98" transform="" fill="none" opacity="1" stroke="none" stroke-opacity="0" fill-opacity="0"/>
                  </g>
                </g>
              </g>
              <g id="Fig:densGRID.VP.631.1">
                <g id="Fig:densGRID.cellGrob.1176.1">
                  <g id="Fig:densplot_01.key.rect.1.1.1">
                    <rect id="Fig:densplot_01.key.rect.1.1.1.1" x="117.31" y="320.9" width="33.36" height="11.5" transform="" opacity="1" fill="rgb(228,26,28)" stroke="rgb(0,0,0)" stroke-opacity="1" fill-opacity="1"/>
                  </g>
                </g>
              </g>
              <g id="Fig:densGRID.VP.632.1">
                <g id="Fig:densGRID.cellGrob.1177.1">
                  <g id="Fig:densplot_01.key.rect.1.2.1">
                    <rect id="Fig:densplot_01.key.rect.1.2.1.1" x="117.31" y="309.41" width="33.36" height="11.5" transform="" opacity="1" fill="rgb(55,126,184)" stroke="rgb(0,0,0)" stroke-opacity="1" fill-opacity="1"/>
                  </g>
                </g>
              </g>
              <g id="Fig:densGRID.VP.633.1">
                <g id="Fig:densGRID.cellGrob.1178.1">
                  <g id="Fig:densplot_01.key.rect.1.3.1">
                    <rect id="Fig:densplot_01.key.rect.1.3.1.1" x="117.31" y="297.91" width="33.36" height="11.5" transform="" opacity="1" fill="rgb(77,175,74)" stroke="rgb(0,0,0)" stroke-opacity="1" fill-opacity="1"/>
                  </g>
                </g>
              </g>
              <g id="Fig:densGRID.VP.634.1">
                <g id="Fig:densGRID.cellGrob.1179.1">
                  <g id="Fig:densplot_01.key.rect.1.4.1">
                    <rect id="Fig:densplot_01.key.rect.1.4.1.1" x="117.31" y="286.42" width="33.36" height="11.5" transform="" opacity="1" fill="rgb(152,78,163)" stroke="rgb(0,0,0)" stroke-opacity="1" fill-opacity="1"/>
                  </g>
                </g>
              </g>
              <g id="Fig:densGRID.VP.635.1">
                <g id="Fig:densGRID.cellGrob.1180.1">
                  <g id="Fig:densplot_01.key.rect.1.5.1">
                    <rect id="Fig:densplot_01.key.rect.1.5.1.1" x="117.31" y="274.92" width="33.36" height="11.5" transform="" opacity="1" fill="rgb(255,127,0)" stroke="rgb(0,0,0)" stroke-opacity="1" fill-opacity="1"/>
                  </g>
                </g>
              </g>
              <g id="Fig:densGRID.VP.636.1">
                <g id="Fig:densGRID.cellGrob.1181.1">
                  <g id="Fig:densplot_01.key.rect.1.6.1">
                    <rect id="Fig:densplot_01.key.rect.1.6.1.1" x="117.31" y="263.42" width="33.36" height="11.5" transform="" opacity="1" fill="rgb(255,255,51)" stroke="rgb(0,0,0)" stroke-opacity="1" fill-opacity="1"/>
                  </g>
                </g>
              </g>
              <g id="Fig:densGRID.VP.637.1">
                <g id="Fig:densGRID.cellGrob.1182.1">
                  <g id="Fig:densplot_01.key.text.2.1.1">
                    <g id="Fig:densplot_01.key.text.2.1.1.1" transform="translate(164.02, 326.65)" stroke-width="0.1">
                      <g id="Fig:densplot_01.key.text.2.1.1.1.scale" transform="scale(1, -1)">
                        <text x="0" y="0" id="Fig:densplot_01.key.text.2.1.1.1.text" text-anchor="start" stroke="rgb(0,0,0)" opacity="1" fill="rgb(0,0,0)" stroke-opacity="1" fill-opacity="1" font-size="12" font-weight="normal" font-style="normal">
                          <tspan id="Fig:densplot_01.key.text.2.1.1.1.tspan.1" dy="4.31" x="0">1</tspan>
                        </text>
                      </g>
                    </g>
                  </g>
                </g>
              </g>
              <g id="Fig:densGRID.VP.638.1">
                <g id="Fig:densGRID.cellGrob.1183.1">
                  <g id="Fig:densplot_01.key.text.2.2.1">
                    <g id="Fig:densplot_01.key.text.2.2.1.1" transform="translate(164.02, 315.16)" stroke-width="0.1">
                      <g id="Fig:densplot_01.key.text.2.2.1.1.scale" transform="scale(1, -1)">
                        <text x="0" y="0" id="Fig:densplot_01.key.text.2.2.1.1.text" text-anchor="start" stroke="rgb(0,0,0)" opacity="1" fill="rgb(0,0,0)" stroke-opacity="1" fill-opacity="1" font-size="12" font-weight="normal" font-style="normal">
                          <tspan id="Fig:densplot_01.key.text.2.2.1.1.tspan.1" dy="4.31" x="0">2</tspan>
                        </text>
                      </g>
                    </g>
                  </g>
                </g>
              </g>
              <g id="Fig:densGRID.VP.639.1">
                <g id="Fig:densGRID.cellGrob.1184.1">
                  <g id="Fig:densplot_01.key.text.2.3.1">
                    <g id="Fig:densplot_01.key.text.2.3.1.1" transform="translate(164.02, 303.66)" stroke-width="0.1">
                      <g id="Fig:densplot_01.key.text.2.3.1.1.scale" transform="scale(1, -1)">
                        <text x="0" y="0" id="Fig:densplot_01.key.text.2.3.1.1.text" text-anchor="start" stroke="rgb(0,0,0)" opacity="1" fill="rgb(0,0,0)" stroke-opacity="1" fill-opacity="1" font-size="12" font-weight="normal" font-style="normal">
                          <tspan id="Fig:densplot_01.key.text.2.3.1.1.tspan.1" dy="4.31" x="0">3</tspan>
                        </text>
                      </g>
                    </g>
                  </g>
                </g>
              </g>
              <g id="Fig:densGRID.VP.640.1">
                <g id="Fig:densGRID.cellGrob.1185.1">
                  <g id="Fig:densplot_01.key.text.2.4.1">
                    <g id="Fig:densplot_01.key.text.2.4.1.1" transform="translate(164.02, 292.16)" stroke-width="0.1">
                      <g id="Fig:densplot_01.key.text.2.4.1.1.scale" transform="scale(1, -1)">
                        <text x="0" y="0" id="Fig:densplot_01.key.text.2.4.1.1.text" text-anchor="start" stroke="rgb(0,0,0)" opacity="1" fill="rgb(0,0,0)" stroke-opacity="1" fill-opacity="1" font-size="12" font-weight="normal" font-style="normal">
                          <tspan id="Fig:densplot_01.key.text.2.4.1.1.tspan.1" dy="4.31" x="0">4</tspan>
                        </text>
                      </g>
                    </g>
                  </g>
                </g>
              </g>
              <g id="Fig:densGRID.VP.641.1">
                <g id="Fig:densGRID.cellGrob.1186.1">
                  <g id="Fig:densplot_01.key.text.2.5.1">
                    <g id="Fig:densplot_01.key.text.2.5.1.1" transform="translate(164.02, 280.67)" stroke-width="0.1">
                      <g id="Fig:densplot_01.key.text.2.5.1.1.scale" transform="scale(1, -1)">
                        <text x="0" y="0" id="Fig:densplot_01.key.text.2.5.1.1.text" text-anchor="start" stroke="rgb(0,0,0)" opacity="1" fill="rgb(0,0,0)" stroke-opacity="1" fill-opacity="1" font-size="12" font-weight="normal" font-style="normal">
                          <tspan id="Fig:densplot_01.key.text.2.5.1.1.tspan.1" dy="4.31" x="0">5</tspan>
                        </text>
                      </g>
                    </g>
                  </g>
                </g>
              </g>
              <g id="Fig:densGRID.VP.642.1">
                <g id="Fig:densGRID.cellGrob.1187.1">
                  <g id="Fig:densplot_01.key.text.2.6.1">
                    <g id="Fig:densplot_01.key.text.2.6.1.1" transform="translate(164.02, 269.17)" stroke-width="0.1">
                      <g id="Fig:densplot_01.key.text.2.6.1.1.scale" transform="scale(1, -1)">
                        <text x="0" y="0" id="Fig:densplot_01.key.text.2.6.1.1.text" text-anchor="start" stroke="rgb(0,0,0)" opacity="1" fill="rgb(0,0,0)" stroke-opacity="1" fill-opacity="1" font-size="12" font-weight="normal" font-style="normal">
                          <tspan id="Fig:densplot_01.key.text.2.6.1.1.tspan.1" dy="4.31" x="0">6</tspan>
                        </text>
                      </g>
                    </g>
                  </g>
                </g>
              </g>
            </g>
          </g>
        </g>
        <g id="Fig:densplot_01.ylab.vp.1">
          <g id="Fig:densplot_01.ylab.1">
            <g id="Fig:densplot_01.ylab.1.1" transform="translate(10.31, 146.81)" stroke-width="0.1">
              <g id="Fig:densplot_01.ylab.1.1.scale" transform="scale(1, -1)">
                <text x="0" y="0" id="Fig:densplot_01.ylab.1.1.text" transform="rotate(-90)" text-anchor="middle" opacity="1" stroke="rgb(0,0,0)" fill="rgb(0,0,0)" stroke-opacity="1" fill-opacity="1" font-size="12" font-weight="normal" font-style="normal">
                  <tspan id="Fig:densplot_01.ylab.1.1.tspan.1" dy="4.31" x="0">Density</tspan>
                </text>
              </g>
            </g>
          </g>
        </g>
        <g id="Fig:densplot_01.figure.vp.1"/>
        <defs>
          <clipPath id="Fig:densplot_01.panel.1.1.vp.1.clipPath">
            <rect x="44.8" y="42.19" width="231.2" height="209.24" fill="none" stroke="none"/>
          </clipPath>
        </defs>
        <g id="Fig:densplot_01.panel.1.1.vp.1" clip-path="url(#Fig:densplot_01.panel.1.1.vp.1.clipPath)"/>
        <g id="Fig:densplot_01.strip.1.1.off.vp.1"/>
        <g id="Fig:densplot_01.strip.left.1.1.off.vp.1">
          <g id="Fig:densplot_01.ticks.left.panel.1.1.1">
            <polyline id="Fig:densplot_01.ticks.left.panel.1.1.1.1" points="44.8,55.04 39.13,55.04" stroke="rgb(0,0,0)" opacity="1" stroke-dasharray="none" stroke-width="0.75" stroke-opacity="1" fill="none"/>
            <polyline id="Fig:densplot_01.ticks.left.panel.1.1.1.2" points="44.8,117.85 39.13,117.85" stroke="rgb(0,0,0)" opacity="1" stroke-dasharray="none" stroke-width="0.75" stroke-opacity="1" fill="none"/>
            <polyline id="Fig:densplot_01.ticks.left.panel.1.1.1.3" points="44.8,180.66 39.13,180.66" stroke="rgb(0,0,0)" opacity="1" stroke-dasharray="none" stroke-width="0.75" stroke-opacity="1" fill="none"/>
            <polyline id="Fig:densplot_01.ticks.left.panel.1.1.1.4" points="44.8,243.47 39.13,243.47" stroke="rgb(0,0,0)" opacity="1" stroke-dasharray="none" stroke-width="0.75" stroke-opacity="1" fill="none"/>
          </g>
          <g id="Fig:densplot_01.ticklabels.left.panel.1.1.1">
            <g id="Fig:densplot_01.ticklabels.left.panel.1.1.1.1" transform="translate(33.47, 55.04)" stroke-width="0.1">
              <g id="Fig:densplot_01.ticklabels.left.panel.1.1.1.1.scale" transform="scale(1, -1)">
                <text x="0" y="0" id="Fig:densplot_01.ticklabels.left.panel.1.1.1.1.text" transform="rotate(-90)" text-anchor="middle" stroke="rgb(0,0,0)" opacity="1" fill="rgb(0,0,0)" stroke-opacity="1" fill-opacity="1" font-size="9.6" font-weight="normal" font-style="normal">
                  <tspan id="Fig:densplot_01.ticklabels.left.panel.1.1.1.1.tspan.1" dy="0" x="0">0.000</tspan>
                </text>
              </g>
            </g>
            <g id="Fig:densplot_01.ticklabels.left.panel.1.1.1.2" transform="translate(33.47, 117.85)" stroke-width="0.1">
              <g id="Fig:densplot_01.ticklabels.left.panel.1.1.1.2.scale" transform="scale(1, -1)">
                <text x="0" y="0" id="Fig:densplot_01.ticklabels.left.panel.1.1.1.2.text" transform="rotate(-90)" text-anchor="middle" stroke="rgb(0,0,0)" opacity="1" fill="rgb(0,0,0)" stroke-opacity="1" fill-opacity="1" font-size="9.6" font-weight="normal" font-style="normal">
                  <tspan id="Fig:densplot_01.ticklabels.left.panel.1.1.1.2.tspan.1" dy="0" x="0">0.005</tspan>
                </text>
              </g>
            </g>
            <g id="Fig:densplot_01.ticklabels.left.panel.1.1.1.3" transform="translate(33.47, 180.66)" stroke-width="0.1">
              <g id="Fig:densplot_01.ticklabels.left.panel.1.1.1.3.scale" transform="scale(1, -1)">
                <text x="0" y="0" id="Fig:densplot_01.ticklabels.left.panel.1.1.1.3.text" transform="rotate(-90)" text-anchor="middle" stroke="rgb(0,0,0)" opacity="1" fill="rgb(0,0,0)" stroke-opacity="1" fill-opacity="1" font-size="9.6" font-weight="normal" font-style="normal">
                  <tspan id="Fig:densplot_01.ticklabels.left.panel.1.1.1.3.tspan.1" dy="0" x="0">0.010</tspan>
                </text>
              </g>
            </g>
            <g id="Fig:densplot_01.ticklabels.left.panel.1.1.1.4" transform="translate(33.47, 243.47)" stroke-width="0.1">
              <g id="Fig:densplot_01.ticklabels.left.panel.1.1.1.4.scale" transform="scale(1, -1)">
                <text x="0" y="0" id="Fig:densplot_01.ticklabels.left.panel.1.1.1.4.text" transform="rotate(-90)" text-anchor="middle" stroke="rgb(0,0,0)" opacity="1" fill="rgb(0,0,0)" stroke-opacity="1" fill-opacity="1" font-size="9.6" font-weight="normal" font-style="normal">
                  <tspan id="Fig:densplot_01.ticklabels.left.panel.1.1.1.4.tspan.1" dy="0" x="0">0.015</tspan>
                </text>
              </g>
            </g>
          </g>
        </g>
        <g id="Fig:densplot_01.panel.1.1.off.vp.1">
          <g id="Fig:densplot_01.ticks.bottom.panel.1.1.1">
            <polyline id="Fig:densplot_01.ticks.bottom.panel.1.1.1.1" points="58.17,42.19 58.17,36.52" stroke="rgb(0,0,0)" opacity="1" stroke-dasharray="none" stroke-width="0.75" stroke-opacity="1" fill="none"/>
            <polyline id="Fig:densplot_01.ticks.bottom.panel.1.1.1.2" points="118.17,42.19 118.17,36.52" stroke="rgb(0,0,0)" opacity="1" stroke-dasharray="none" stroke-width="0.75" stroke-opacity="1" fill="none"/>
            <polyline id="Fig:densplot_01.ticks.bottom.panel.1.1.1.3" points="178.16,42.19 178.16,36.52" stroke="rgb(0,0,0)" opacity="1" stroke-dasharray="none" stroke-width="0.75" stroke-opacity="1" fill="none"/>
            <polyline id="Fig:densplot_01.ticks.bottom.panel.1.1.1.4" points="238.16,42.19 238.16,36.52" stroke="rgb(0,0,0)" opacity="1" stroke-dasharray="none" stroke-width="0.75" stroke-opacity="1" fill="none"/>
          </g>
          <g id="Fig:densplot_01.ticklabels.bottom.panel.1.1.1">
            <g id="Fig:densplot_01.ticklabels.bottom.panel.1.1.1.1" transform="translate(58.17, 30.85)" stroke-width="0.1">
              <g id="Fig:densplot_01.ticklabels.bottom.panel.1.1.1.1.scale" transform="scale(1, -1)">
                <text x="0" y="0" id="Fig:densplot_01.ticklabels.bottom.panel.1.1.1.1.text" text-anchor="middle" stroke="rgb(0,0,0)" opacity="1" fill="rgb(0,0,0)" stroke-opacity="1" fill-opacity="1" font-size="9.6" font-weight="normal" font-style="normal">
                  <tspan id="Fig:densplot_01.ticklabels.bottom.panel.1.1.1.1.tspan.1" dy="7.18" x="0">0</tspan>
                </text>
              </g>
            </g>
            <g id="Fig:densplot_01.ticklabels.bottom.panel.1.1.1.2" transform="translate(118.17, 30.85)" stroke-width="0.1">
              <g id="Fig:densplot_01.ticklabels.bottom.panel.1.1.1.2.scale" transform="scale(1, -1)">
                <text x="0" y="0" id="Fig:densplot_01.ticklabels.bottom.panel.1.1.1.2.text" text-anchor="middle" stroke="rgb(0,0,0)" opacity="1" fill="rgb(0,0,0)" stroke-opacity="1" fill-opacity="1" font-size="9.6" font-weight="normal" font-style="normal">
                  <tspan id="Fig:densplot_01.ticklabels.bottom.panel.1.1.1.2.tspan.1" dy="7.18" x="0">1000</tspan>
                </text>
              </g>
            </g>
            <g id="Fig:densplot_01.ticklabels.bottom.panel.1.1.1.3" transform="translate(178.16, 30.85)" stroke-width="0.1">
              <g id="Fig:densplot_01.ticklabels.bottom.panel.1.1.1.3.scale" transform="scale(1, -1)">
                <text x="0" y="0" id="Fig:densplot_01.ticklabels.bottom.panel.1.1.1.3.text" text-anchor="middle" stroke="rgb(0,0,0)" opacity="1" fill="rgb(0,0,0)" stroke-opacity="1" fill-opacity="1" font-size="9.6" font-weight="normal" font-style="normal">
                  <tspan id="Fig:densplot_01.ticklabels.bottom.panel.1.1.1.3.tspan.1" dy="7.18" x="0">2000</tspan>
                </text>
              </g>
            </g>
            <g id="Fig:densplot_01.ticklabels.bottom.panel.1.1.1.4" transform="translate(238.16, 30.85)" stroke-width="0.1">
              <g id="Fig:densplot_01.ticklabels.bottom.panel.1.1.1.4.scale" transform="scale(1, -1)">
                <text x="0" y="0" id="Fig:densplot_01.ticklabels.bottom.panel.1.1.1.4.text" text-anchor="middle" stroke="rgb(0,0,0)" opacity="1" fill="rgb(0,0,0)" stroke-opacity="1" fill-opacity="1" font-size="9.6" font-weight="normal" font-style="normal">
                  <tspan id="Fig:densplot_01.ticklabels.bottom.panel.1.1.1.4.tspan.1" dy="7.18" x="0">3000</tspan>
                </text>
              </g>
            </g>
          </g>
        </g>
        <defs>
          <clipPath id="Fig:densplot_01.panel.1.1.vp.2.clipPath">
            <rect x="44.8" y="42.19" width="231.2" height="209.24" fill="none" stroke="none"/>
          </clipPath>
        </defs>
        <g id="Fig:densplot_01.panel.1.1.vp.2" clip-path="url(#Fig:densplot_01.panel.1.1.vp.2.clipPath)">
          <g id="Fig:densplot_01.xyplot.lines.group.1.panel.1.1.1">
            <polyline id="Fig:densplot_01.xyplot.lines.group.1.panel.1.1.1.1" points="59.21,55.04 59.6,55.05 60,55.24 60.4,56.68 60.79,63.62 61.19,84.45 61.58,123.96 61.98,170.28 62.38,200.2 62.77,203.67 63.17,188.38 63.57,166.95 63.96,147.33 64.36,131.77 64.75,119.71 65.15,110.43 65.55,103.37 65.94,97.76 66.34,93.07 66.74,89.27 67.13,86.12 67.53,83.29 67.93,80.92 68.32,78.93 68.72,77.16 69.11,75.5 69.51,74.03 69.91,72.76 70.3,71.56 70.7,70.52 71.1,69.6 71.49,68.7 71.89,67.93 72.28,67.19 72.68,66.41 73.08,65.68 73.47,65.02 73.87,64.43 74.27,63.92 74.66,63.48 75.06,63.06 75.45,62.6 75.85,62.17 76.25,61.87 76.64,61.63 77.04,61.35 77.44,61.07 77.83,60.82 78.23,60.61 78.63,60.4 79.02,60.18 79.42,59.96 79.81,59.75 80.21,59.59 80.61,59.47 81,59.33 81.4,59.14 81.8,58.96 82.19,58.82 82.59,58.75 82.98,58.7 83.38,58.6 83.78,58.49 84.17,58.43 84.57,58.37 84.97,58.28 85.36,58.18 85.76,58.07 86.16,57.96 86.55,57.89 86.95,57.8 87.34,57.73 87.74,57.69 88.14,57.64 88.53,57.56 88.93,57.49 89.33,57.47 89.72,57.43 90.12,57.41 90.51,57.39 90.91,57.34 91.31,57.27 91.7,57.23 92.1,57.19 92.5,57.15 92.89,57.08 93.29,56.99 93.68,56.96 94.08,56.94 94.48,56.91 94.87,56.87 95.27,56.84 95.67,56.78 96.06,56.73 96.46,56.72 96.86,56.71 97.25,56.69 97.65,56.66 98.04,56.63 98.44,56.6 98.84,56.58 99.23,56.56 99.63,56.53 100.03,56.5 100.42,56.47 100.82,56.45 101.21,56.44 101.61,56.43 102.01,56.41 102.4,56.37 102.8,56.34 103.2,56.35 103.59,56.35 103.99,56.33 104.38,56.29 104.78,56.25 105.18,56.23 105.57,56.23 105.97,56.21 106.37,56.18 106.76,56.17 107.16,56.15 107.56,56.14 107.95,56.13 108.35,56.13 108.74,56.13 109.14,56.12 109.54,56.12 109.93,56.1 110.33,56.06 110.73,56.01 111.12,55.99 111.52,56 111.91,56.01 112.31,55.99 112.71,55.98 113.1,55.97 113.5,55.95 113.9,55.93 114.29,55.93 114.69,55.93 115.09,55.93 115.48,55.92 115.88,55.9 116.27,55.89 116.67,55.89 117.07,55.87 117.46,55.86 117.86,55.86 118.26,55.84 118.65,55.81 119.05,55.8 119.44,55.8 119.84,55.8 120.24,55.79 120.63,55.78 121.03,55.77 121.43,55.75 121.82,55.75 122.22,55.75 122.61,55.76 123.01,55.76 123.41,55.74 123.8,55.74 124.2,55.74 124.6,55.75 124.99,55.74 125.39,55.73 125.79,55.73 126.18,55.72 126.58,55.71 126.97,55.69 127.37,55.66 127.77,55.64 128.16,55.63 128.56,55.63 128.96,55.63 129.35,55.64 129.75,55.65 130.14,55.66 130.54,55.65 130.94,55.64 131.33,55.63 131.73,55.61 132.13,55.59 132.52,55.59 132.92,55.6 133.32,55.6 133.71,55.59 134.11,55.57 134.5,55.56 134.9,55.54 135.3,55.52 135.69,55.52 136.09,55.53 136.49,55.55 136.88,55.55 137.28,55.55 137.67,55.56 138.07,55.56 138.47,55.56 138.86,55.54 139.26,55.53 139.66,55.53 140.05,55.54 140.45,55.52 140.84,55.5 141.24,55.49 141.64,55.49 142.03,55.49 142.43,55.49 142.83,55.48 143.22,55.46 143.62,55.46 144.02,55.46 144.41,55.46 144.81,55.47 145.2,55.47 145.6,55.45 146,55.44 146.39,55.44 146.79,55.44 147.19,55.44 147.58,55.44 147.98,55.43 148.37,55.42 148.77,55.42 149.17,55.42 149.56,55.41 149.96,55.41 150.36,55.42 150.75,55.43 151.15,55.42 151.55,55.4 151.94,55.39 152.34,55.39 152.73,55.4 153.13,55.39 153.53,55.38 153.92,55.38 154.32,55.38 154.72,55.39 155.11,55.39 155.51,55.39 155.9,55.39 156.3,55.39 156.7,55.38 157.09,55.38 157.49,55.38 157.89,55.37 158.28,55.37 158.68,55.39 159.07,55.38 159.47,55.36 159.87,55.35 160.26,55.35 160.66,55.35 161.06,55.35 161.45,55.34 161.85,55.34 162.25,55.34 162.64,55.35 163.04,55.34 163.43,55.33 163.83,55.32 164.23,55.32 164.62,55.33 165.02,55.34 165.42,55.33 165.81,55.33 166.21,55.33 166.6,55.33 167,55.34 167.4,55.34 167.79,55.33 168.19,55.31 168.59,55.3 168.98,55.31 169.38,55.32 169.78,55.31 170.17,55.3 170.57,55.3 170.96,55.3 171.36,55.3 171.76,55.29 172.15,55.29 172.55,55.29 172.95,55.29 173.34,55.28 173.74,55.27 174.13,55.27 174.53,55.28 174.93,55.29 175.32,55.29 175.72,55.28 176.12,55.27 176.51,55.27 176.91,55.27 177.3,55.27 177.7,55.28 178.1,55.29 178.49,55.29 178.89,55.28 179.29,55.28 179.68,55.27 180.08,55.26 180.48,55.27 180.87,55.27 181.27,55.27 181.66,55.26 182.06,55.25 182.46,55.25 182.85,55.25 183.25,55.25 183.65,55.26 184.04,55.26 184.44,55.26 184.83,55.26 185.23,55.26 185.63,55.26 186.02,55.27 186.42,55.26 186.82,55.25 187.21,55.24 187.61,55.23 188.01,55.22 188.4,55.23 188.8,55.24 189.19,55.24 189.59,55.23 189.99,55.23 190.38,55.24 190.78,55.23 191.18,55.23 191.57,55.24 191.97,55.25 192.36,55.24 192.76,55.24 193.16,55.24 193.55,55.23 193.95,55.23 194.35,55.23 194.74,55.22 195.14,55.22 195.53,55.22 195.93,55.21 196.33,55.21 196.72,55.21 197.12,55.21 197.52,55.21 197.91,55.22 198.31,55.21 198.71,55.2 199.1,55.21 199.5,55.21 199.89,55.21 200.29,55.21 200.69,55.21 201.08,55.22 201.48,55.22 201.88,55.23 202.27,55.23 202.67,55.22 203.06,55.22 203.46,55.22 203.86,55.22 204.25,55.22 204.65,55.2 205.05,55.2 205.44,55.2 205.84,55.19 206.23,55.2 206.63,55.2 207.03,55.2 207.42,55.2 207.82,55.2 208.22,55.2 208.61,55.2 209.01,55.19 209.41,55.19 209.8,55.19 210.2,55.2 210.59,55.19 210.99,55.19 211.39,55.19 211.78,55.18 212.18,55.18 212.58,55.17 212.97,55.17 213.37,55.19 213.76,55.21 214.16,55.21 214.56,55.2 214.95,55.19 215.35,55.18 215.75,55.17 216.14,55.17 216.54,55.18 216.94,55.18 217.33,55.17 217.73,55.17 218.12,55.18 218.52,55.18 218.92,55.17 219.31,55.16 219.71,55.16 220.11,55.17 220.5,55.17 220.9,55.17 221.29,55.17 221.69,55.17 222.09,55.17 222.48,55.17 222.88,55.17 223.28,55.16 223.67,55.16 224.07,55.16 224.46,55.17 224.86,55.18 225.26,55.18 225.65,55.18 226.05,55.18 226.45,55.18 226.84,55.17 227.24,55.16 227.64,55.17 228.03,55.16 228.43,55.16 228.82,55.17 229.22,55.17 229.62,55.17 230.01,55.16 230.41,55.16 230.81,55.16 231.2,55.16 231.6,55.17 231.99,55.17 232.39,55.16 232.79,55.16 233.18,55.15 233.58,55.15 233.98,55.16 234.37,55.15 234.77,55.15 235.17,55.15 235.56,55.16 235.96,55.17 236.35,55.16 236.75,55.15 237.15,55.15 237.54,55.15 237.94,55.14 238.34,55.14 238.73,55.14 239.13,55.15 239.52,55.14 239.92,55.15 240.32,55.15 240.71,55.15 241.11,55.14 241.51,55.14 241.9,55.15 242.3,55.15 242.69,55.15 243.09,55.15 243.49,55.15 243.88,55.14 244.28,55.14 244.68,55.15 245.07,55.15 245.47,55.14 245.87,55.14 246.26,55.14 246.66,55.14 247.05,55.13 247.45,55.13 247.85,55.14 248.24,55.15 248.64,55.14 249.04,55.14 249.43,55.14 249.83,55.14 250.22,55.14 250.62,55.15 251.02,55.14 251.41,55.13 251.81,55.12 252.21,55.13 252.6,55.14 253,55.13 253.4,55.13 253.79,55.13 254.19,55.13 254.58,55.14 254.98,55.14 255.38,55.13 255.77,55.13 256.17,55.13 256.57,55.13 256.96,55.13 257.36,55.14 257.75,55.14 258.15,55.13 258.55,55.13 258.94,55.13 259.34,55.12 259.74,55.11 260.13,55.11 260.53,55.1 260.92,55.07 261.32,55.04 261.72,55.04" stroke-dasharray="none" stroke="rgb(228,26,28)" stroke-width="0.75" opacity="1" stroke-opacity="1" fill="none"/>
          </g>
          <g id="Fig:densplot_01.xyplot.lines.group.2.panel.1.1.1">
            <polyline id="Fig:densplot_01.xyplot.lines.group.2.panel.1.1.1.1" points="59,55.04 59.4,55.09 59.79,55.72 60.19,59.77 60.59,74.61 60.98,107.17 61.38,150.66 61.78,183.68 62.18,191.97 62.57,181.35 62.97,164.29 63.37,147.82 63.76,134.09 64.16,123.3 64.56,114.77 64.95,107.8 65.35,102.05 65.75,97.18 66.14,92.97 66.54,89.45 66.94,86.54 67.33,83.95 67.73,81.66 68.13,79.76 68.53,78 68.92,76.35 69.32,74.86 69.72,73.36 70.11,71.9 70.51,70.67 70.91,69.68 71.3,68.81 71.7,68 72.1,67.25 72.49,66.52 72.89,65.8 73.29,65.21 73.68,64.72 74.08,64.23 74.48,63.75 74.88,63.34 75.27,62.97 75.67,62.58 76.07,62.21 76.46,61.91 76.86,61.61 77.26,61.32 77.65,61.06 78.05,60.85 78.45,60.67 78.84,60.51 79.24,60.3 79.64,60.07 80.03,59.87 80.43,59.71 80.83,59.55 81.23,59.41 81.62,59.28 82.02,59.15 82.42,59.01 82.81,58.87 83.21,58.73 83.61,58.64 84,58.57 84.4,58.49 84.8,58.42 85.19,58.32 85.59,58.2 85.99,58.08 86.38,57.99 86.78,57.92 87.18,57.9 87.58,57.87 87.97,57.83 88.37,57.77 88.77,57.69 89.16,57.62 89.56,57.59 89.96,57.56 90.35,57.51 90.75,57.43 91.15,57.37 91.54,57.32 91.94,57.26 92.34,57.22 92.73,57.2 93.13,57.17 93.53,57.12 93.93,57.07 94.32,57.02 94.72,56.97 95.12,56.9 95.51,56.88 95.91,56.89 96.31,56.88 96.7,56.84 97.1,56.78 97.5,56.75 97.89,56.73 98.29,56.7 98.69,56.67 99.08,56.63 99.48,56.61 99.88,56.61 100.28,56.57 100.67,56.53 101.07,56.49 101.47,56.47 101.86,56.45 102.26,56.44 102.66,56.43 103.05,56.41 103.45,56.38 103.85,56.35 104.24,56.33 104.64,56.31 105.04,56.28 105.43,56.28 105.83,56.29 106.23,56.29 106.63,56.27 107.02,56.26 107.42,56.25 107.82,56.22 108.21,56.19 108.61,56.17 109.01,56.16 109.4,56.16 109.8,56.15 110.2,56.15 110.59,56.14 110.99,56.12 111.39,56.06 111.78,56.02 112.18,56 112.58,56.01 112.98,56.03 113.37,56.03 113.77,56.01 114.17,55.98 114.56,55.97 114.96,55.95 115.36,55.93 115.75,55.92 116.15,55.93 116.55,55.92 116.94,55.89 117.34,55.87 117.74,55.86 118.13,55.86 118.53,55.87 118.93,55.85 119.33,55.83 119.72,55.83 120.12,55.83 120.52,55.83 120.91,55.81 121.31,55.78 121.71,55.78 122.1,55.8 122.5,55.79 122.9,55.77 123.29,55.75 123.69,55.74 124.09,55.72 124.48,55.71 124.88,55.71 125.28,55.72 125.68,55.72 126.07,55.72 126.47,55.71 126.87,55.7 127.26,55.68 127.66,55.69 128.06,55.7 128.45,55.7 128.85,55.68 129.25,55.68 129.64,55.68 130.04,55.67 130.44,55.66 130.83,55.62 131.23,55.6 131.63,55.61 132.03,55.62 132.42,55.63 132.82,55.63 133.22,55.62 133.61,55.62 134.01,55.61 134.41,55.58 134.8,55.56 135.2,55.57 135.6,55.59 135.99,55.59 136.39,55.56 136.79,55.54 137.18,55.54 137.58,55.54 137.98,55.54 138.38,55.53 138.77,55.53 139.17,55.53 139.57,55.54 139.96,55.54 140.36,55.54 140.76,55.52 141.15,55.52 141.55,55.52 141.95,55.52 142.34,55.51 142.74,55.51 143.14,55.51 143.53,55.5 143.93,55.48 144.33,55.46 144.73,55.45 145.12,55.45 145.52,55.46 145.92,55.45 146.31,55.46 146.71,55.46 147.11,55.47 147.5,55.47 147.9,55.47 148.3,55.46 148.69,55.44 149.09,55.42 149.49,55.42 149.88,55.43 150.28,55.43 150.68,55.42 151.08,55.41 151.47,55.41 151.87,55.41 152.27,55.41 152.66,55.42 153.06,55.41 153.46,55.41 153.85,55.4 154.25,55.39 154.65,55.39 155.04,55.39 155.44,55.39 155.84,55.38 156.23,55.37 156.63,55.37 157.03,55.39 157.43,55.39 157.82,55.36 158.22,55.34 158.62,55.35 159.01,55.36 159.41,55.37 159.81,55.36 160.2,55.36 160.6,55.36 161,55.36 161.39,55.36 161.79,55.36 162.19,55.36 162.58,55.36 162.98,55.34 163.38,55.34 163.78,55.34 164.17,55.34 164.57,55.35 164.97,55.35 165.36,55.34 165.76,55.33 166.16,55.32 166.55,55.31 166.95,55.32 167.35,55.31 167.74,55.31 168.14,55.3 168.54,55.3 168.93,55.31 169.33,55.32 169.73,55.32 170.13,55.32 170.52,55.31 170.92,55.3 171.32,55.3 171.71,55.3 172.11,55.3 172.51,55.29 172.9,55.29 173.3,55.29 173.7,55.29 174.09,55.29 174.49,55.3 174.89,55.31 175.28,55.31 175.68,55.3 176.08,55.29 176.48,55.29 176.87,55.29 177.27,55.28 177.67,55.28 178.06,55.28 178.46,55.28 178.86,55.28 179.25,55.28 179.65,55.28 180.05,55.28 180.44,55.28 180.84,55.28 181.24,55.28 181.63,55.27 182.03,55.27 182.43,55.27 182.83,55.28 183.22,55.28 183.62,55.26 184.02,55.25 184.41,55.25 184.81,55.24 185.21,55.24 185.6,55.22 186,55.23 186.4,55.24 186.79,55.24 187.19,55.25 187.59,55.25 187.98,55.25 188.38,55.25 188.78,55.24 189.18,55.23 189.57,55.23 189.97,55.23 190.37,55.22 190.76,55.23 191.16,55.24 191.56,55.24 191.95,55.24 192.35,55.23 192.75,55.23 193.14,55.23 193.54,55.23 193.94,55.23 194.33,55.23 194.73,55.23 195.13,55.23 195.53,55.23 195.92,55.23 196.32,55.23 196.72,55.22 197.11,55.22 197.51,55.22 197.91,55.22 198.3,55.21 198.7,55.21 199.1,55.21 199.49,55.21 199.89,55.21 200.29,55.2 200.68,55.2 201.08,55.2 201.48,55.2 201.88,55.21 202.27,55.2 202.67,55.21 203.07,55.21 203.46,55.21 203.86,55.21 204.26,55.2 204.65,55.2 205.05,55.21 205.45,55.21 205.84,55.21 206.24,55.2 206.64,55.2 207.03,55.2 207.43,55.21 207.83,55.21 208.23,55.21 208.62,55.2 209.02,55.2 209.42,55.21 209.81,55.2 210.21,55.19 210.61,55.19 211,55.18 211.4,55.18 211.8,55.18 212.19,55.18 212.59,55.18 212.99,55.18 213.38,55.19 213.78,55.19 214.18,55.2 214.58,55.19 214.97,55.19 215.37,55.18 215.77,55.19 216.16,55.18 216.56,55.17 216.96,55.16 217.35,55.16 217.75,55.17 218.15,55.18 218.54,55.19 218.94,55.19 219.34,55.19 219.73,55.18 220.13,55.17 220.53,55.17 220.93,55.17 221.32,55.18 221.72,55.18 222.12,55.18 222.51,55.17 222.91,55.16 223.31,55.17 223.7,55.17 224.1,55.16 224.5,55.16 224.89,55.16 225.29,55.16 225.69,55.16 226.08,55.17 226.48,55.17 226.88,55.17 227.28,55.16 227.67,55.15 228.07,55.15 228.47,55.15 228.86,55.15 229.26,55.15 229.66,55.16 230.05,55.16 230.45,55.16 230.85,55.15 231.24,55.15 231.64,55.15 232.04,55.16 232.43,55.16 232.83,55.15 233.23,55.15 233.63,55.15 234.02,55.15 234.42,55.16 234.82,55.16 235.21,55.15 235.61,55.15 236.01,55.15 236.4,55.16 236.8,55.16 237.2,55.16 237.59,55.15 237.99,55.15 238.39,55.15 238.78,55.15 239.18,55.15 239.58,55.14 239.98,55.13 240.37,55.14 240.77,55.15 241.17,55.16 241.56,55.15 241.96,55.14 242.36,55.14 242.75,55.14 243.15,55.14 243.55,55.14 243.94,55.14 244.34,55.13 244.74,55.14 245.13,55.14 245.53,55.15 245.93,55.15 246.33,55.15 246.72,55.13 247.12,55.12 247.52,55.12 247.91,55.13 248.31,55.14 248.71,55.14 249.1,55.14 249.5,55.15 249.9,55.15 250.29,55.14 250.69,55.14 251.09,55.13 251.48,55.13 251.88,55.14 252.28,55.14 252.68,55.13 253.07,55.12 253.47,55.12 253.87,55.12 254.26,55.13 254.66,55.13 255.06,55.13 255.45,55.14 255.85,55.15 256.25,55.14 256.64,55.13 257.04,55.13 257.44,55.13 257.83,55.13 258.23,55.13 258.63,55.12 259.03,55.13 259.42,55.13 259.82,55.13 260.22,55.12 260.61,55.09 261.01,55.06 261.41,55.04 261.8,55.04" stroke-dasharray="none" stroke="rgb(55,126,184)" stroke-width="0.75" opacity="1" stroke-opacity="1" fill="none"/>
          </g>
          <g id="Fig:densplot_01.xyplot.lines.group.3.panel.1.1.1">
            <polyline id="Fig:densplot_01.xyplot.lines.group.3.panel.1.1.1.1" points="59.02,55.04 59.42,55.04 59.82,55.2 60.21,57.31 60.61,69.81 61.01,106.04 61.4,160.77 61.8,202.92 62.2,211.64 62.59,195.73 62.99,172.73 63.39,152.25 63.78,136.14 64.18,124.12 64.58,114.6 64.97,106.77 65.37,100.55 65.77,95.57 66.16,91.45 66.56,87.91 66.96,84.98 67.35,82.55 67.75,80.28 68.15,78.11 68.54,76.23 68.94,74.66 69.33,73.2 69.73,71.72 70.13,70.27 70.52,69.1 70.92,68.2 71.32,67.37 71.71,66.55 72.11,65.81 72.51,65.23 72.9,64.75 73.3,64.27 73.7,63.83 74.09,63.41 74.49,62.93 74.89,62.47 75.28,62.08 75.68,61.7 76.08,61.39 76.47,61.14 76.87,60.89 77.27,60.65 77.66,60.45 78.06,60.28 78.46,60.11 78.85,59.92 79.25,59.73 79.64,59.57 80.04,59.43 80.44,59.28 80.83,59.14 81.23,59.03 81.63,58.92 82.02,58.78 82.42,58.64 82.82,58.53 83.21,58.43 83.61,58.3 84.01,58.23 84.4,58.19 84.8,58.09 85.2,57.99 85.59,57.91 85.99,57.84 86.39,57.8 86.78,57.75 87.18,57.68 87.58,57.61 87.97,57.58 88.37,57.54 88.77,57.47 89.16,57.41 89.56,57.37 89.96,57.35 90.35,57.3 90.75,57.22 91.14,57.14 91.54,57.12 91.94,57.11 92.33,57.08 92.73,57 93.13,56.95 93.52,56.9 93.92,56.85 94.32,56.83 94.71,56.79 95.11,56.73 95.51,56.71 95.9,56.69 96.3,56.69 96.7,56.69 97.09,56.67 97.49,56.64 97.89,56.59 98.28,56.53 98.68,56.51 99.08,56.51 99.47,56.51 99.87,56.5 100.27,56.47 100.66,56.43 101.06,56.41 101.45,56.4 101.85,56.38 102.25,56.33 102.64,56.31 103.04,56.32 103.44,56.3 103.83,56.28 104.23,56.26 104.63,56.23 105.02,56.2 105.42,56.18 105.82,56.16 106.21,56.12 106.61,56.12 107.01,56.12 107.4,56.1 107.8,56.09 108.2,56.1 108.59,56.1 108.99,56.07 109.39,56.05 109.78,56.04 110.18,56.02 110.58,55.98 110.97,55.97 111.37,55.98 111.77,55.98 112.16,55.97 112.56,55.95 112.95,55.92 113.35,55.91 113.75,55.92 114.14,55.93 114.54,55.93 114.94,55.9 115.33,55.87 115.73,55.87 116.13,55.86 116.52,55.84 116.92,55.83 117.32,55.81 117.71,55.78 118.11,55.75 118.51,55.75 118.9,55.76 119.3,55.78 119.7,55.8 120.09,55.77 120.49,55.74 120.89,55.73 121.28,55.73 121.68,55.73 122.08,55.71 122.47,55.7 122.87,55.69 123.26,55.69 123.66,55.69 124.06,55.69 124.45,55.69 124.85,55.68 125.25,55.66 125.64,55.66 126.04,55.67 126.44,55.67 126.83,55.65 127.23,55.62 127.63,55.62 128.02,55.63 128.42,55.63 128.82,55.61 129.21,55.6 129.61,55.62 130.01,55.62 130.4,55.6 130.8,55.6 131.2,55.59 131.59,55.58 131.99,55.57 132.39,55.55 132.78,55.54 133.18,55.56 133.58,55.56 133.97,55.55 134.37,55.53 134.76,55.52 135.16,55.53 135.56,55.54 135.95,55.54 136.35,55.52 136.75,55.51 137.14,55.49 137.54,55.49 137.94,55.5 138.33,55.5 138.73,55.51 139.13,55.51 139.52,55.5 139.92,55.48 140.32,55.47 140.71,55.45 141.11,55.45 141.51,55.46 141.9,55.45 142.3,55.44 142.7,55.44 143.09,55.45 143.49,55.45 143.89,55.45 144.28,55.44 144.68,55.42 145.07,55.41 145.47,55.41 145.87,55.43 146.26,55.45 146.66,55.44 147.06,55.43 147.45,55.42 147.85,55.42 148.25,55.41 148.64,55.41 149.04,55.41 149.44,55.4 149.83,55.39 150.23,55.39 150.63,55.38 151.02,55.38 151.42,55.37 151.82,55.38 152.21,55.39 152.61,55.39 153.01,55.38 153.4,55.37 153.8,55.36 154.2,55.36 154.59,55.37 154.99,55.37 155.39,55.36 155.78,55.36 156.18,55.36 156.57,55.35 156.97,55.33 157.37,55.33 157.76,55.33 158.16,55.34 158.56,55.34 158.95,55.34 159.35,55.34 159.75,55.33 160.14,55.32 160.54,55.33 160.94,55.34 161.33,55.33 161.73,55.34 162.13,55.34 162.52,55.32 162.92,55.3 163.32,55.3 163.71,55.32 164.11,55.33 164.51,55.33 164.9,55.33 165.3,55.32 165.7,55.31 166.09,55.3 166.49,55.31 166.88,55.31 167.28,55.31 167.68,55.3 168.07,55.31 168.47,55.32 168.87,55.31 169.26,55.29 169.66,55.29 170.06,55.29 170.45,55.29 170.85,55.29 171.25,55.28 171.64,55.27 172.04,55.27 172.44,55.27 172.83,55.29 173.23,55.3 173.63,55.29 174.02,55.28 174.42,55.27 174.82,55.26 175.21,55.26 175.61,55.27 176.01,55.27 176.4,55.28 176.8,55.26 177.2,55.25 177.59,55.24 177.99,55.23 178.38,55.23 178.78,55.24 179.18,55.25 179.57,55.25 179.97,55.24 180.37,55.24 180.76,55.25 181.16,55.26 181.56,55.25 181.95,55.24 182.35,55.25 182.75,55.25 183.14,55.26 183.54,55.25 183.94,55.25 184.33,55.24 184.73,55.25 185.13,55.24 185.52,55.24 185.92,55.24 186.32,55.23 186.71,55.22 187.11,55.23 187.51,55.23 187.9,55.22 188.3,55.21 188.69,55.21 189.09,55.21 189.49,55.22 189.88,55.22 190.28,55.21 190.68,55.21 191.07,55.2 191.47,55.21 191.87,55.22 192.26,55.22 192.66,55.23 193.06,55.23 193.45,55.22 193.85,55.21 194.25,55.2 194.64,55.19 195.04,55.19 195.44,55.21 195.83,55.21 196.23,55.21 196.63,55.21 197.02,55.2 197.42,55.2 197.82,55.21 198.21,55.21 198.61,55.21 199.01,55.21 199.4,55.21 199.8,55.21 200.19,55.19 200.59,55.18 200.99,55.19 201.38,55.2 201.78,55.19 202.18,55.2 202.57,55.21 202.97,55.21 203.37,55.2 203.76,55.2 204.16,55.19 204.56,55.18 204.95,55.18 205.35,55.18 205.75,55.18 206.14,55.19 206.54,55.18 206.94,55.18 207.33,55.17 207.73,55.17 208.13,55.17 208.52,55.17 208.92,55.18 209.32,55.18 209.71,55.18 210.11,55.18 210.5,55.18 210.9,55.19 211.3,55.19 211.69,55.19 212.09,55.18 212.49,55.17 212.88,55.17 213.28,55.16 213.68,55.17 214.07,55.16 214.47,55.16 214.87,55.16 215.26,55.16 215.66,55.17 216.06,55.17 216.45,55.17 216.85,55.17 217.25,55.17 217.64,55.16 218.04,55.16 218.44,55.16 218.83,55.17 219.23,55.17 219.63,55.17 220.02,55.17 220.42,55.17 220.82,55.16 221.21,55.16 221.61,55.16 222,55.16 222.4,55.16 222.8,55.17 223.19,55.17 223.59,55.16 223.99,55.16 224.38,55.16 224.78,55.16 225.18,55.16 225.57,55.15 225.97,55.15 226.37,55.15 226.76,55.15 227.16,55.16 227.56,55.17 227.95,55.17 228.35,55.16 228.75,55.14 229.14,55.14 229.54,55.15 229.94,55.15 230.33,55.15 230.73,55.15 231.13,55.14 231.52,55.14 231.92,55.16 232.31,55.16 232.71,55.16 233.11,55.15 233.5,55.14 233.9,55.14 234.3,55.14 234.69,55.14 235.09,55.13 235.49,55.13 235.88,55.14 236.28,55.14 236.68,55.14 237.07,55.14 237.47,55.14 237.87,55.14 238.26,55.14 238.66,55.13 239.06,55.13 239.45,55.13 239.85,55.13 240.25,55.14 240.64,55.14 241.04,55.13 241.44,55.13 241.83,55.13 242.23,55.13 242.63,55.13 243.02,55.13 243.42,55.13 243.81,55.14 244.21,55.13 244.61,55.13 245,55.14 245.4,55.13 245.8,55.13 246.19,55.13 246.59,55.13 246.99,55.13 247.38,55.14 247.78,55.14 248.18,55.13 248.57,55.13 248.97,55.12 249.37,55.12 249.76,55.12 250.16,55.11 250.56,55.12 250.95,55.12 251.35,55.13 251.75,55.12 252.14,55.12 252.54,55.13 252.94,55.13 253.33,55.14 253.73,55.13 254.12,55.12 254.52,55.12 254.92,55.13 255.31,55.13 255.71,55.12 256.11,55.12 256.5,55.12 256.9,55.12 257.3,55.12 257.69,55.12 258.09,55.12 258.49,55.12 258.88,55.13 259.28,55.13 259.68,55.11 260.07,55.11 260.47,55.1 260.87,55.07 261.26,55.04 261.66,55.04" stroke-dasharray="none" stroke="rgb(77,175,74)" stroke-width="0.75" opacity="1" stroke-opacity="1" fill="none"/>
          </g>
          <g id="Fig:densplot_01.xyplot.lines.group.4.panel.1.1.1">
            <polyline id="Fig:densplot_01.xyplot.lines.group.4.panel.1.1.1.1" points="59.14,55.04 59.54,55.32 59.93,59.54 60.33,82.6 60.72,139.3 61.12,206.13 61.52,238.1 61.91,225.86 62.31,194.79 62.71,166.01 63.1,144.14 63.5,127.98 63.89,116.17 64.29,107.54 64.69,100.87 65.08,95.42 65.48,90.95 65.87,87.22 66.27,84.08 66.67,81.33 67.06,78.72 67.46,76.5 67.85,74.63 68.25,72.91 68.65,71.39 69.04,70.06 69.44,68.91 69.83,67.91 70.23,67.05 70.63,66.24 71.02,65.54 71.42,64.97 71.82,64.5 72.21,64.05 72.61,63.55 73,63.05 73.4,62.64 73.8,62.29 74.19,61.88 74.59,61.49 74.98,61.26 75.38,60.97 75.78,60.65 76.17,60.41 76.57,60.28 76.96,60.15 77.36,59.96 77.76,59.73 78.15,59.55 78.55,59.4 78.94,59.28 79.34,59.12 79.74,58.94 80.13,58.86 80.53,58.7 80.93,58.55 81.32,58.45 81.72,58.36 82.11,58.24 82.51,58.2 82.91,58.16 83.3,58.1 83.7,58.03 84.09,57.93 84.49,57.85 84.89,57.78 85.28,57.71 85.68,57.65 86.07,57.6 86.47,57.57 86.87,57.48 87.26,57.41 87.66,57.37 88.05,57.32 88.45,57.24 88.85,57.16 89.24,57.15 89.64,57.1 90.04,57.07 90.43,57 90.83,56.91 91.22,56.87 91.62,56.87 92.02,56.85 92.41,56.84 92.81,56.8 93.2,56.76 93.6,56.7 94,56.66 94.39,56.67 94.79,56.67 95.18,56.63 95.58,56.6 95.98,56.58 96.37,56.55 96.77,56.51 97.17,56.47 97.56,56.44 97.96,56.46 98.35,56.45 98.75,56.4 99.15,56.34 99.54,56.34 99.94,56.33 100.33,56.31 100.73,56.29 101.13,56.28 101.52,56.28 101.92,56.27 102.31,56.25 102.71,56.22 103.11,56.2 103.5,56.18 103.9,56.14 104.29,56.1 104.69,56.08 105.09,56.07 105.48,56.05 105.88,56.05 106.28,56.05 106.67,56.03 107.07,56.01 107.46,56 107.86,55.97 108.26,55.94 108.65,55.95 109.05,55.97 109.44,55.95 109.84,55.94 110.24,55.94 110.63,55.91 111.03,55.86 111.42,55.85 111.82,55.86 112.22,55.87 112.61,55.85 113.01,55.83 113.4,55.84 113.8,55.81 114.2,55.8 114.59,55.78 114.99,55.79 115.39,55.78 115.78,55.79 116.18,55.79 116.57,55.78 116.97,55.77 117.37,55.77 117.76,55.74 118.16,55.73 118.55,55.72 118.95,55.71 119.35,55.72 119.74,55.72 120.14,55.73 120.53,55.73 120.93,55.7 121.33,55.68 121.72,55.66 122.12,55.64 122.52,55.62 122.91,55.63 123.31,55.65 123.7,55.63 124.1,55.62 124.5,55.6 124.89,55.6 125.29,55.61 125.68,55.61 126.08,55.6 126.48,55.59 126.87,55.58 127.27,55.58 127.66,55.58 128.06,55.57 128.46,55.57 128.85,55.54 129.25,55.51 129.64,55.53 130.04,55.55 130.44,55.55 130.83,55.54 131.23,55.53 131.63,55.52 132.02,55.5 132.42,55.5 132.81,55.51 133.21,55.51 133.61,55.49 134,55.48 134.4,55.49 134.79,55.5 135.19,55.51 135.59,55.5 135.98,55.48 136.38,55.46 136.77,55.47 137.17,55.47 137.57,55.45 137.96,55.44 138.36,55.43 138.75,55.42 139.15,55.43 139.55,55.43 139.94,55.43 140.34,55.43 140.74,55.44 141.13,55.45 141.53,55.44 141.92,55.43 142.32,55.42 142.72,55.41 143.11,55.41 143.51,55.41 143.9,55.4 144.3,55.4 144.7,55.4 145.09,55.4 145.49,55.39 145.88,55.38 146.28,55.39 146.68,55.4 147.07,55.39 147.47,55.39 147.87,55.39 148.26,55.37 148.66,55.35 149.05,55.35 149.45,55.36 149.85,55.37 150.24,55.36 150.64,55.35 151.03,55.34 151.43,55.35 151.83,55.34 152.22,55.34 152.62,55.34 153.01,55.33 153.41,55.32 153.81,55.31 154.2,55.32 154.6,55.32 154.99,55.32 155.39,55.32 155.79,55.32 156.18,55.32 156.58,55.32 156.98,55.31 157.37,55.3 157.77,55.31 158.16,55.3 158.56,55.31 158.96,55.31 159.35,55.31 159.75,55.31 160.14,55.31 160.54,55.3 160.94,55.28 161.33,55.27 161.73,55.3 162.12,55.3 162.52,55.31 162.92,55.32 163.31,55.31 163.71,55.29 164.1,55.27 164.5,55.27 164.9,55.26 165.29,55.27 165.69,55.29 166.09,55.28 166.48,55.26 166.88,55.27 167.27,55.26 167.67,55.26 168.07,55.27 168.46,55.28 168.86,55.28 169.25,55.27 169.65,55.26 170.05,55.27 170.44,55.28 170.84,55.28 171.23,55.27 171.63,55.27 172.03,55.26 172.42,55.26 172.82,55.26 173.21,55.26 173.61,55.26 174.01,55.25 174.4,55.25 174.8,55.24 175.2,55.23 175.59,55.22 175.99,55.22 176.38,55.23 176.78,55.24 177.18,55.23 177.57,55.22 177.97,55.23 178.36,55.23 178.76,55.24 179.16,55.25 179.55,55.24 179.95,55.24 180.34,55.23 180.74,55.22 181.14,55.22 181.53,55.21 181.93,55.2 182.33,55.2 182.72,55.22 183.12,55.22 183.51,55.21 183.91,55.22 184.31,55.22 184.7,55.22 185.1,55.22 185.49,55.22 185.89,55.22 186.29,55.22 186.68,55.22 187.08,55.21 187.47,55.21 187.87,55.22 188.27,55.22 188.66,55.21 189.06,55.21 189.45,55.2 189.85,55.21 190.25,55.21 190.64,55.2 191.04,55.19 191.44,55.19 191.83,55.2 192.23,55.21 192.62,55.21 193.02,55.2 193.42,55.2 193.81,55.19 194.21,55.18 194.6,55.18 195,55.19 195.4,55.21 195.79,55.2 196.19,55.19 196.58,55.18 196.98,55.16 197.38,55.17 197.77,55.18 198.17,55.19 198.56,55.18 198.96,55.17 199.36,55.18 199.75,55.18 200.15,55.18 200.55,55.17 200.94,55.16 201.34,55.17 201.73,55.18 202.13,55.19 202.53,55.18 202.92,55.17 203.32,55.18 203.71,55.18 204.11,55.18 204.51,55.18 204.9,55.17 205.3,55.17 205.69,55.17 206.09,55.17 206.49,55.16 206.88,55.16 207.28,55.17 207.68,55.18 208.07,55.17 208.47,55.16 208.86,55.17 209.26,55.17 209.66,55.17 210.05,55.17 210.45,55.17 210.84,55.16 211.24,55.16 211.64,55.16 212.03,55.16 212.43,55.17 212.82,55.17 213.22,55.16 213.62,55.16 214.01,55.17 214.41,55.17 214.8,55.17 215.2,55.17 215.6,55.16 215.99,55.15 216.39,55.15 216.79,55.15 217.18,55.15 217.58,55.16 217.97,55.15 218.37,55.15 218.77,55.14 219.16,55.14 219.56,55.14 219.95,55.15 220.35,55.16 220.75,55.15 221.14,55.14 221.54,55.14 221.93,55.15 222.33,55.15 222.73,55.15 223.12,55.14 223.52,55.14 223.91,55.14 224.31,55.14 224.71,55.14 225.1,55.14 225.5,55.14 225.9,55.14 226.29,55.14 226.69,55.15 227.08,55.15 227.48,55.14 227.88,55.13 228.27,55.14 228.67,55.13 229.06,55.13 229.46,55.13 229.86,55.14 230.25,55.14 230.65,55.14 231.04,55.15 231.44,55.15 231.84,55.14 232.23,55.13 232.63,55.13 233.02,55.14 233.42,55.14 233.82,55.15 234.21,55.15 234.61,55.13 235.01,55.13 235.4,55.13 235.8,55.13 236.19,55.12 236.59,55.12 236.99,55.12 237.38,55.13 237.78,55.14 238.17,55.13 238.57,55.13 238.97,55.13 239.36,55.13 239.76,55.13 240.15,55.12 240.55,55.12 240.95,55.12 241.34,55.12 241.74,55.12 242.14,55.12 242.53,55.13 242.93,55.12 243.32,55.11 243.72,55.12 244.12,55.11 244.51,55.11 244.91,55.12 245.3,55.11 245.7,55.12 246.1,55.14 246.49,55.14 246.89,55.13 247.28,55.13 247.68,55.11 248.08,55.11 248.47,55.11 248.87,55.12 249.26,55.11 249.66,55.11 250.06,55.11 250.45,55.11 250.85,55.11 251.25,55.12 251.64,55.12 252.04,55.12 252.43,55.11 252.83,55.11 253.23,55.11 253.62,55.12 254.02,55.11 254.41,55.11 254.81,55.11 255.21,55.12 255.6,55.11 256,55.1 256.39,55.11 256.79,55.12 257.19,55.12 257.58,55.12 257.98,55.12 258.37,55.12 258.77,55.12 259.17,55.13 259.56,55.12 259.96,55.12 260.36,55.11 260.75,55.08 261.15,55.05 261.54,55.04" stroke-dasharray="none" stroke="rgb(152,78,163)" stroke-width="0.75" opacity="1" stroke-opacity="1" fill="none"/>
          </g>
          <g id="Fig:densplot_01.xyplot.lines.group.5.panel.1.1.1">
            <polyline id="Fig:densplot_01.xyplot.lines.group.5.panel.1.1.1.1" points="59.2,55.05 59.6,55.68 59.99,63.17 60.39,96.95 60.78,164.15 61.18,224.51 61.58,238.58 61.97,215.53 62.37,183.7 62.76,157.83 63.16,138.51 63.56,124.01 63.95,113.5 64.35,105.42 64.74,98.69 65.14,93.54 65.54,89.47 65.93,85.8 66.33,82.75 66.72,80.31 67.12,78.13 67.52,76.06 67.91,74.09 68.31,72.25 68.7,70.8 69.1,69.57 69.5,68.46 69.89,67.53 70.29,66.72 70.68,66.04 71.08,65.38 71.48,64.77 71.87,64.25 72.27,63.8 72.66,63.38 73.06,62.92 73.46,62.49 73.85,62.11 74.25,61.79 74.64,61.48 75.04,61.2 75.44,60.89 75.83,60.65 76.23,60.49 76.62,60.32 77.02,60.11 77.42,59.87 77.81,59.69 78.21,59.49 78.6,59.32 79,59.18 79.4,59.07 79.79,58.92 80.19,58.8 80.58,58.69 80.98,58.59 81.37,58.48 81.77,58.44 82.17,58.34 82.56,58.2 82.96,58.1 83.35,58.03 83.75,57.93 84.15,57.85 84.54,57.78 84.94,57.71 85.33,57.69 85.73,57.66 86.13,57.6 86.52,57.55 86.92,57.48 87.31,57.4 87.71,57.39 88.11,57.33 88.5,57.26 88.9,57.22 89.29,57.16 89.69,57.1 90.09,57.03 90.48,57.01 90.88,56.97 91.27,56.92 91.67,56.9 92.07,56.87 92.46,56.85 92.86,56.85 93.25,56.84 93.65,56.81 94.05,56.75 94.44,56.7 94.84,56.67 95.23,56.62 95.63,56.56 96.03,56.52 96.42,56.49 96.82,56.48 97.21,56.47 97.61,56.44 98.01,56.43 98.4,56.41 98.8,56.38 99.19,56.33 99.59,56.3 99.99,56.28 100.38,56.28 100.78,56.27 101.17,56.23 101.57,56.22 101.97,56.22 102.36,56.21 102.76,56.18 103.15,56.15 103.55,56.13 103.95,56.12 104.34,56.12 104.74,56.11 105.13,56.08 105.53,56.05 105.93,56.05 106.32,56.05 106.72,56.05 107.11,56.04 107.51,56.02 107.91,56 108.3,55.96 108.7,55.94 109.09,55.95 109.49,55.95 109.89,55.93 110.28,55.9 110.68,55.91 111.07,55.89 111.47,55.87 111.86,55.89 112.26,55.89 112.66,55.87 113.05,55.86 113.45,55.85 113.84,55.82 114.24,55.78 114.64,55.78 115.03,55.78 115.43,55.78 115.82,55.79 116.22,55.78 116.62,55.77 117.01,55.75 117.41,55.73 117.8,55.71 118.2,55.71 118.6,55.71 118.99,55.71 119.39,55.72 119.78,55.71 120.18,55.7 120.58,55.68 120.97,55.68 121.37,55.66 121.76,55.63 122.16,55.63 122.56,55.6 122.95,55.63 123.35,55.64 123.74,55.61 124.14,55.59 124.54,55.61 124.93,55.6 125.33,55.59 125.72,55.6 126.12,55.61 126.52,55.63 126.91,55.61 127.31,55.59 127.7,55.59 128.1,55.58 128.5,55.57 128.89,55.57 129.29,55.55 129.68,55.54 130.08,55.54 130.48,55.54 130.87,55.54 131.27,55.52 131.66,55.51 132.06,55.5 132.46,55.5 132.85,55.51 133.25,55.52 133.64,55.52 134.04,55.51 134.44,55.5 134.83,55.48 135.23,55.47 135.62,55.47 136.02,55.47 136.42,55.47 136.81,55.45 137.21,55.45 137.6,55.46 138,55.45 138.4,55.45 138.79,55.45 139.19,55.43 139.58,55.42 139.98,55.41 140.38,55.41 140.77,55.42 141.17,55.42 141.56,55.4 141.96,55.4 142.36,55.41 142.75,55.4 143.15,55.39 143.54,55.39 143.94,55.4 144.33,55.4 144.73,55.41 145.13,55.4 145.52,55.39 145.92,55.4 146.31,55.39 146.71,55.37 147.11,55.37 147.5,55.39 147.9,55.38 148.29,55.37 148.69,55.36 149.09,55.36 149.48,55.37 149.88,55.37 150.27,55.36 150.67,55.34 151.07,55.33 151.46,55.34 151.86,55.33 152.25,55.33 152.65,55.33 153.05,55.32 153.44,55.32 153.84,55.33 154.23,55.34 154.63,55.33 155.03,55.32 155.42,55.31 155.82,55.31 156.21,55.33 156.61,55.33 157.01,55.32 157.4,55.32 157.8,55.32 158.19,55.31 158.59,55.3 158.99,55.3 159.38,55.3 159.78,55.3 160.17,55.3 160.57,55.29 160.97,55.27 161.36,55.28 161.76,55.28 162.15,55.28 162.55,55.28 162.95,55.28 163.34,55.28 163.74,55.26 164.13,55.25 164.53,55.27 164.93,55.29 165.32,55.28 165.72,55.27 166.11,55.25 166.51,55.26 166.91,55.28 167.3,55.28 167.7,55.26 168.09,55.25 168.49,55.26 168.89,55.26 169.28,55.26 169.68,55.27 170.07,55.27 170.47,55.27 170.87,55.26 171.26,55.25 171.66,55.24 172.05,55.24 172.45,55.24 172.85,55.24 173.24,55.24 173.64,55.24 174.03,55.24 174.43,55.24 174.83,55.24 175.22,55.24 175.62,55.24 176.01,55.24 176.41,55.24 176.8,55.23 177.2,55.23 177.6,55.24 177.99,55.25 178.39,55.25 178.78,55.24 179.18,55.23 179.58,55.23 179.97,55.24 180.37,55.24 180.76,55.24 181.16,55.23 181.56,55.22 181.95,55.21 182.35,55.21 182.74,55.21 183.14,55.22 183.54,55.22 183.93,55.22 184.33,55.22 184.72,55.22 185.12,55.21 185.52,55.2 185.91,55.2 186.31,55.2 186.7,55.2 187.1,55.2 187.5,55.21 187.89,55.21 188.29,55.21 188.68,55.21 189.08,55.2 189.48,55.21 189.87,55.21 190.27,55.21 190.66,55.2 191.06,55.2 191.46,55.2 191.85,55.2 192.25,55.2 192.64,55.2 193.04,55.21 193.44,55.21 193.83,55.2 194.23,55.2 194.62,55.2 195.02,55.19 195.42,55.2 195.81,55.18 196.21,55.19 196.6,55.19 197,55.18 197.4,55.19 197.79,55.19 198.19,55.17 198.58,55.17 198.98,55.18 199.38,55.19 199.77,55.19 200.17,55.17 200.56,55.16 200.96,55.17 201.36,55.19 201.75,55.19 202.15,55.19 202.54,55.16 202.94,55.16 203.34,55.16 203.73,55.17 204.13,55.16 204.52,55.16 204.92,55.17 205.32,55.17 205.71,55.17 206.11,55.18 206.5,55.17 206.9,55.17 207.29,55.17 207.69,55.17 208.09,55.17 208.48,55.16 208.88,55.15 209.27,55.15 209.67,55.16 210.07,55.16 210.46,55.16 210.86,55.16 211.25,55.16 211.65,55.15 212.05,55.15 212.44,55.15 212.84,55.14 213.23,55.15 213.63,55.16 214.03,55.16 214.42,55.16 214.82,55.17 215.21,55.16 215.61,55.14 216.01,55.14 216.4,55.14 216.8,55.14 217.19,55.15 217.59,55.15 217.99,55.15 218.38,55.16 218.78,55.15 219.17,55.14 219.57,55.13 219.97,55.13 220.36,55.14 220.76,55.15 221.15,55.15 221.55,55.15 221.95,55.16 222.34,55.15 222.74,55.15 223.13,55.14 223.53,55.14 223.93,55.14 224.32,55.14 224.72,55.14 225.11,55.13 225.51,55.13 225.91,55.13 226.3,55.14 226.7,55.14 227.09,55.14 227.49,55.14 227.89,55.14 228.28,55.14 228.68,55.14 229.07,55.13 229.47,55.13 229.87,55.13 230.26,55.13 230.66,55.13 231.05,55.13 231.45,55.14 231.85,55.15 232.24,55.14 232.64,55.13 233.03,55.13 233.43,55.13 233.83,55.13 234.22,55.14 234.62,55.13 235.01,55.12 235.41,55.13 235.81,55.14 236.2,55.13 236.6,55.12 236.99,55.12 237.39,55.12 237.79,55.11 238.18,55.12 238.58,55.12 238.97,55.12 239.37,55.13 239.76,55.13 240.16,55.14 240.56,55.13 240.95,55.12 241.35,55.12 241.74,55.12 242.14,55.13 242.54,55.13 242.93,55.13 243.33,55.13 243.72,55.14 244.12,55.13 244.52,55.13 244.91,55.12 245.31,55.12 245.7,55.12 246.1,55.12 246.5,55.11 246.89,55.11 247.29,55.12 247.68,55.12 248.08,55.12 248.48,55.12 248.87,55.12 249.27,55.12 249.66,55.11 250.06,55.11 250.46,55.11 250.85,55.11 251.25,55.12 251.64,55.12 252.04,55.11 252.44,55.11 252.83,55.11 253.23,55.11 253.62,55.11 254.02,55.11 254.42,55.11 254.81,55.11 255.21,55.11 255.6,55.11 256,55.12 256.4,55.12 256.79,55.12 257.19,55.11 257.58,55.11 257.98,55.11 258.38,55.11 258.77,55.11 259.17,55.11 259.56,55.11 259.96,55.11 260.36,55.1 260.75,55.08 261.15,55.05 261.54,55.04" stroke-dasharray="none" stroke="rgb(255,127,0)" stroke-width="0.75" opacity="1" stroke-opacity="1" fill="none"/>
          </g>
          <g id="Fig:densplot_01.xyplot.lines.group.6.panel.1.1.1">
            <polyline id="Fig:densplot_01.xyplot.lines.group.6.panel.1.1.1.1" points="59.3,55.04 59.7,55.06 60.1,55.4 60.49,57.75 60.89,67.58 61.29,92.96 61.68,133.91 62.08,174.28 62.47,194.73 62.87,191.89 63.27,176.23 63.66,157.72 64.06,141.2 64.45,128.35 64.85,118.31 65.25,110.26 65.64,103.9 66.04,98.71 66.44,94.32 66.83,90.77 67.23,87.73 67.62,84.98 68.02,82.51 68.42,80.3 68.81,78.42 69.21,76.69 69.6,74.96 70,73.41 70.4,72.04 70.79,70.82 71.19,69.74 71.59,68.73 71.98,67.8 72.38,66.99 72.77,66.32 73.17,65.72 73.57,65.09 73.96,64.54 74.36,64.04 74.75,63.55 75.15,63.11 75.55,62.74 75.94,62.43 76.34,62.11 76.74,61.81 77.13,61.55 77.53,61.3 77.92,61 78.32,60.7 78.72,60.47 79.11,60.27 79.51,60.06 79.9,59.87 80.3,59.72 80.7,59.63 81.09,59.52 81.49,59.39 81.89,59.21 82.28,59.04 82.68,58.9 83.07,58.76 83.47,58.64 83.87,58.55 84.26,58.49 84.66,58.43 85.05,58.35 85.45,58.27 85.85,58.19 86.24,58.1 86.64,58.01 87.04,57.92 87.43,57.84 87.83,57.8 88.22,57.76 88.62,57.69 89.02,57.62 89.41,57.56 89.81,57.51 90.2,57.45 90.6,57.39 91,57.34 91.39,57.3 91.79,57.31 92.19,57.28 92.58,57.22 92.98,57.17 93.37,57.1 93.77,57.02 94.17,56.99 94.56,56.99 94.96,56.95 95.35,56.9 95.75,56.87 96.15,56.84 96.54,56.84 96.94,56.8 97.34,56.73 97.73,56.66 98.13,56.61 98.52,56.58 98.92,56.57 99.32,56.58 99.71,56.57 100.11,56.54 100.5,56.52 100.9,56.5 101.3,56.46 101.69,56.43 102.09,56.41 102.49,56.39 102.88,56.36 103.28,56.35 103.67,56.34 104.07,56.32 104.47,56.3 104.86,56.28 105.26,56.26 105.65,56.25 106.05,56.26 106.45,56.24 106.84,56.2 107.24,56.17 107.64,56.15 108.03,56.15 108.43,56.16 108.82,56.13 109.22,56.11 109.62,56.11 110.01,56.1 110.41,56.09 110.8,56.07 111.2,56.04 111.6,56.01 111.99,56.01 112.39,56.01 112.79,56 113.18,55.98 113.58,55.96 113.97,55.93 114.37,55.92 114.77,55.93 115.16,55.94 115.56,55.93 115.95,55.9 116.35,55.88 116.75,55.88 117.14,55.88 117.54,55.88 117.94,55.86 118.33,55.85 118.73,55.86 119.12,55.88 119.52,55.86 119.92,55.83 120.31,55.82 120.71,55.81 121.1,55.8 121.5,55.79 121.9,55.78 122.29,55.75 122.69,55.73 123.09,55.71 123.48,55.71 123.88,55.71 124.27,55.71 124.67,55.7 125.07,55.7 125.46,55.7 125.86,55.71 126.25,55.71 126.65,55.69 127.05,55.67 127.44,55.66 127.84,55.65 128.24,55.66 128.63,55.68 129.03,55.67 129.42,55.67 129.82,55.66 130.22,55.63 130.61,55.62 131.01,55.63 131.4,55.62 131.8,55.61 132.2,55.61 132.59,55.61 132.99,55.6 133.39,55.59 133.78,55.58 134.18,55.58 134.57,55.56 134.97,55.55 135.37,55.55 135.76,55.55 136.16,55.56 136.55,55.57 136.95,55.56 137.35,55.53 137.74,55.52 138.14,55.52 138.54,55.53 138.93,55.51 139.33,55.5 139.72,55.5 140.12,55.5 140.52,55.5 140.91,55.49 141.31,55.49 141.7,55.48 142.1,55.47 142.5,55.47 142.89,55.47 143.29,55.46 143.69,55.45 144.08,55.46 144.48,55.48 144.87,55.48 145.27,55.46 145.67,55.45 146.06,55.44 146.46,55.44 146.85,55.44 147.25,55.44 147.65,55.44 148.04,55.45 148.44,55.45 148.84,55.45 149.23,55.46 149.63,55.48 150.02,55.49 150.42,55.47 150.82,55.46 151.21,55.44 151.61,55.43 152,55.42 152.4,55.42 152.8,55.41 153.19,55.4 153.59,55.4 153.99,55.39 154.38,55.38 154.78,55.39 155.17,55.39 155.57,55.39 155.97,55.39 156.36,55.39 156.76,55.37 157.15,55.34 157.55,55.34 157.95,55.35 158.34,55.35 158.74,55.34 159.14,55.33 159.53,55.34 159.93,55.36 160.32,55.37 160.72,55.37 161.12,55.37 161.51,55.36 161.91,55.34 162.3,55.34 162.7,55.33 163.1,55.33 163.49,55.34 163.89,55.34 164.29,55.34 164.68,55.32 165.08,55.32 165.47,55.33 165.87,55.33 166.27,55.32 166.66,55.3 167.06,55.29 167.45,55.3 167.85,55.32 168.25,55.32 168.64,55.33 169.04,55.33 169.44,55.33 169.83,55.32 170.23,55.31 170.62,55.3 171.02,55.29 171.42,55.28 171.81,55.28 172.21,55.29 172.6,55.29 173,55.28 173.4,55.28 173.79,55.28 174.19,55.28 174.59,55.28 174.98,55.29 175.38,55.3 175.77,55.29 176.17,55.29 176.57,55.29 176.96,55.28 177.36,55.27 177.75,55.26 178.15,55.26 178.55,55.26 178.94,55.27 179.34,55.27 179.74,55.27 180.13,55.26 180.53,55.26 180.92,55.25 181.32,55.26 181.72,55.26 182.11,55.26 182.51,55.26 182.9,55.25 183.3,55.25 183.7,55.27 184.09,55.28 184.49,55.27 184.89,55.25 185.28,55.24 185.68,55.25 186.07,55.25 186.47,55.26 186.87,55.26 187.26,55.26 187.66,55.25 188.05,55.24 188.45,55.24 188.85,55.24 189.24,55.22 189.64,55.21 190.04,55.22 190.43,55.23 190.83,55.23 191.22,55.23 191.62,55.23 192.02,55.22 192.41,55.22 192.81,55.21 193.2,55.21 193.6,55.21 194,55.2 194.39,55.2 194.79,55.21 195.19,55.22 195.58,55.23 195.98,55.23 196.37,55.23 196.77,55.23 197.17,55.23 197.56,55.23 197.96,55.23 198.35,55.23 198.75,55.22 199.15,55.21 199.54,55.22 199.94,55.21 200.34,55.21 200.73,55.21 201.13,55.21 201.52,55.21 201.92,55.21 202.32,55.2 202.71,55.2 203.11,55.2 203.5,55.19 203.9,55.19 204.3,55.19 204.69,55.19 205.09,55.19 205.49,55.18 205.88,55.19 206.28,55.19 206.67,55.2 207.07,55.2 207.47,55.19 207.86,55.2 208.26,55.2 208.65,55.21 209.05,55.21 209.45,55.2 209.84,55.2 210.24,55.2 210.64,55.2 211.03,55.19 211.43,55.19 211.82,55.19 212.22,55.18 212.62,55.18 213.01,55.18 213.41,55.18 213.8,55.19 214.2,55.18 214.6,55.18 214.99,55.18 215.39,55.18 215.79,55.18 216.18,55.18 216.58,55.17 216.97,55.17 217.37,55.17 217.77,55.18 218.16,55.18 218.56,55.17 218.95,55.17 219.35,55.17 219.75,55.17 220.14,55.17 220.54,55.17 220.94,55.17 221.33,55.17 221.73,55.18 222.12,55.19 222.52,55.17 222.92,55.17 223.31,55.17 223.71,55.17 224.1,55.16 224.5,55.17 224.9,55.18 225.29,55.17 225.69,55.16 226.09,55.16 226.48,55.16 226.88,55.16 227.27,55.16 227.67,55.17 228.07,55.17 228.46,55.16 228.86,55.16 229.25,55.15 229.65,55.15 230.05,55.16 230.44,55.16 230.84,55.14 231.24,55.15 231.63,55.15 232.03,55.16 232.42,55.16 232.82,55.16 233.22,55.16 233.61,55.15 234.01,55.15 234.4,55.16 234.8,55.16 235.2,55.16 235.59,55.16 235.99,55.15 236.39,55.14 236.78,55.14 237.18,55.14 237.57,55.14 237.97,55.14 238.37,55.14 238.76,55.14 239.16,55.14 239.55,55.14 239.95,55.15 240.35,55.15 240.74,55.15 241.14,55.15 241.54,55.15 241.93,55.15 242.33,55.15 242.72,55.15 243.12,55.14 243.52,55.14 243.91,55.14 244.31,55.14 244.7,55.13 245.1,55.13 245.5,55.13 245.89,55.14 246.29,55.14 246.69,55.13 247.08,55.14 247.48,55.14 247.87,55.13 248.27,55.13 248.67,55.12 249.06,55.13 249.46,55.14 249.85,55.14 250.25,55.14 250.65,55.14 251.04,55.13 251.44,55.13 251.84,55.14 252.23,55.14 252.63,55.14 253.02,55.14 253.42,55.13 253.82,55.13 254.21,55.13 254.61,55.13 255,55.13 255.4,55.13 255.8,55.12 256.19,55.12 256.59,55.13 256.99,55.14 257.38,55.13 257.78,55.14 258.17,55.14 258.57,55.14 258.97,55.13 259.36,55.13 259.76,55.13 260.15,55.12 260.55,55.1 260.95,55.06 261.34,55.04 261.74,55.04" stroke-dasharray="none" stroke="rgb(255,255,51)" stroke-width="0.75" opacity="1" stroke-opacity="1" fill="none"/>
          </g>
        </g>
        <g id="Fig:densplot_01.panel.1.1.off.vp.2">
          <g id="Fig:densplot_01.border.panel.1.1.1">
            <rect id="Fig:densplot_01.border.panel.1.1.1.1" x="44.8" y="42.19" width="231.2" height="209.24" transform="" stroke="rgb(0,0,0)" stroke-dasharray="none" stroke-width="0.75" opacity="1" fill="none" stroke-opacity="1" fill-opacity="0"/>
          </g>
        </g>
        <g id="Fig:densplot_01..1"/>
      </g>
    </g>
  </g>
</svg>