<?xml version="1.0" encoding="ISO8859-1"?>
<svg xmlns="http://www.w3.org/2000/svg" xmlns:xlink="http://www.w3.org/1999/xlink" width="288px" height="338.4px" viewBox="0 0 288 338.4" version="1.1" id="Fig:dens">
  <metadata xmlns:gridsvg="http://www.stat.auckland.ac.nz/~paul/R/gridSVG/">
    <gridsvg:generator name="gridSVG" version="1.7-1" time="2020-04-25 15:45:21"/>
    <gridsvg:argument name="name" value="C:/Bea/Master/Datos omicos Bea/PEC1/arrayQMceles/dens.svg"/>
    <gridsvg:argument name="exportCoords" value="none"/>
    <gridsvg:argument name="exportMappings" value="none"/>
    <gridsvg:argument name="exportJS" value="none"/>
    <gridsvg:argument name="res" value="72"/>
    <gridsvg:argument name="prefix" value="Fig:dens"/>
    <gridsvg:argument name="addClasses" value="FALSE"/>
    <gridsvg:argument name="indent" value="TRUE"/>
    <gridsvg:argument name="htmlWrapper" value="FALSE"/>
    <gridsvg:argument name="usePaths" value="none"/>
    <gridsvg:argument name="uniqueNames" value="TRUE"/>
    <gridsvg:separator name="id.sep" value="."/>
    <gridsvg:separator name="gPath.sep" value="::"/>
    <gridsvg:separator name="vpPath.sep" value="::"/>
  </metadata>
  <g transform="translate(0, 338.4) scale(1, -1)">
    <g id="Fig:densgridSVG" fill="none" stroke="rgb(0,0,0)" stroke-dasharray="none" stroke-width="0.75" font-size="12" font-family="Helvetica, Arial, FreeSans, Liberation Sans, Nimbus Sans L, sans-serif" opacity="1" stroke-linecap="round" stroke-linejoin="round" stroke-miterlimit="10" stroke-opacity="1" fill-opacity="0" font-weight="normal" font-style="normal">
      <g id="Fig:densplot_01.background.1">
        <rect id="Fig:densplot_01.background.1.1" x="0" y="0" width="288" height="338.4" transform="" fill="none" stroke="none" stroke-opacity="0" fill-opacity="0"/>
      </g>
      <g id="Fig:densplot_01.toplevel.vp.1" font-size="12">
        <g id="Fig:densplot_01.main.vp.1">
          <g id="Fig:densGRID.VP.770.1">
            <g id="Fig:densplot_01.key.frame.1">
              <g id="Fig:densGRID.VP.771.1">
                <g id="Fig:densGRID.cellGrob.1523.1">
                  <g id="Fig:densplot_01.key.background.1">
                    <rect id="Fig:densplot_01.key.background.1.1" x="110.64" y="263.42" width="66.72" height="68.98" transform="" fill="none" opacity="1" stroke="none" stroke-opacity="0" fill-opacity="0"/>
                  </g>
                </g>
              </g>
              <g id="Fig:densGRID.VP.772.1">
                <g id="Fig:densGRID.cellGrob.1524.1">
                  <g id="Fig:densplot_01.key.rect.1.1.1">
                    <rect id="Fig:densplot_01.key.rect.1.1.1.1" x="117.31" y="320.9" width="33.36" height="11.5" transform="" opacity="1" fill="rgb(228,26,28)" stroke="rgb(0,0,0)" stroke-opacity="1" fill-opacity="1"/>
                  </g>
                </g>
              </g>
              <g id="Fig:densGRID.VP.773.1">
                <g id="Fig:densGRID.cellGrob.1525.1">
                  <g id="Fig:densplot_01.key.rect.1.2.1">
                    <rect id="Fig:densplot_01.key.rect.1.2.1.1" x="117.31" y="309.41" width="33.36" height="11.5" transform="" opacity="1" fill="rgb(55,126,184)" stroke="rgb(0,0,0)" stroke-opacity="1" fill-opacity="1"/>
                  </g>
                </g>
              </g>
              <g id="Fig:densGRID.VP.774.1">
                <g id="Fig:densGRID.cellGrob.1526.1">
                  <g id="Fig:densplot_01.key.rect.1.3.1">
                    <rect id="Fig:densplot_01.key.rect.1.3.1.1" x="117.31" y="297.91" width="33.36" height="11.5" transform="" opacity="1" fill="rgb(77,175,74)" stroke="rgb(0,0,0)" stroke-opacity="1" fill-opacity="1"/>
                  </g>
                </g>
              </g>
              <g id="Fig:densGRID.VP.775.1">
                <g id="Fig:densGRID.cellGrob.1527.1">
                  <g id="Fig:densplot_01.key.rect.1.4.1">
                    <rect id="Fig:densplot_01.key.rect.1.4.1.1" x="117.31" y="286.42" width="33.36" height="11.5" transform="" opacity="1" fill="rgb(152,78,163)" stroke="rgb(0,0,0)" stroke-opacity="1" fill-opacity="1"/>
                  </g>
                </g>
              </g>
              <g id="Fig:densGRID.VP.776.1">
                <g id="Fig:densGRID.cellGrob.1528.1">
                  <g id="Fig:densplot_01.key.rect.1.5.1">
                    <rect id="Fig:densplot_01.key.rect.1.5.1.1" x="117.31" y="274.92" width="33.36" height="11.5" transform="" opacity="1" fill="rgb(255,127,0)" stroke="rgb(0,0,0)" stroke-opacity="1" fill-opacity="1"/>
                  </g>
                </g>
              </g>
              <g id="Fig:densGRID.VP.777.1">
                <g id="Fig:densGRID.cellGrob.1529.1">
                  <g id="Fig:densplot_01.key.rect.1.6.1">
                    <rect id="Fig:densplot_01.key.rect.1.6.1.1" x="117.31" y="263.42" width="33.36" height="11.5" transform="" opacity="1" fill="rgb(255,255,51)" stroke="rgb(0,0,0)" stroke-opacity="1" fill-opacity="1"/>
                  </g>
                </g>
              </g>
              <g id="Fig:densGRID.VP.778.1">
                <g id="Fig:densGRID.cellGrob.1530.1">
                  <g id="Fig:densplot_01.key.text.2.1.1">
                    <g id="Fig:densplot_01.key.text.2.1.1.1" transform="translate(164.02, 326.65)" stroke-width="0.1">
                      <g id="Fig:densplot_01.key.text.2.1.1.1.scale" transform="scale(1, -1)">
                        <text x="0" y="0" id="Fig:densplot_01.key.text.2.1.1.1.text" text-anchor="start" stroke="rgb(0,0,0)" opacity="1" fill="rgb(0,0,0)" stroke-opacity="1" fill-opacity="1" font-size="12" font-weight="normal" font-style="normal">
                          <tspan id="Fig:densplot_01.key.text.2.1.1.1.tspan.1" dy="4.31" x="0">1</tspan>
                        </text>
                      </g>
                    </g>
                  </g>
                </g>
              </g>
              <g id="Fig:densGRID.VP.779.1">
                <g id="Fig:densGRID.cellGrob.1531.1">
                  <g id="Fig:densplot_01.key.text.2.2.1">
                    <g id="Fig:densplot_01.key.text.2.2.1.1" transform="translate(164.02, 315.16)" stroke-width="0.1">
                      <g id="Fig:densplot_01.key.text.2.2.1.1.scale" transform="scale(1, -1)">
                        <text x="0" y="0" id="Fig:densplot_01.key.text.2.2.1.1.text" text-anchor="start" stroke="rgb(0,0,0)" opacity="1" fill="rgb(0,0,0)" stroke-opacity="1" fill-opacity="1" font-size="12" font-weight="normal" font-style="normal">
                          <tspan id="Fig:densplot_01.key.text.2.2.1.1.tspan.1" dy="4.31" x="0">2</tspan>
                        </text>
                      </g>
                    </g>
                  </g>
                </g>
              </g>
              <g id="Fig:densGRID.VP.780.1">
                <g id="Fig:densGRID.cellGrob.1532.1">
                  <g id="Fig:densplot_01.key.text.2.3.1">
                    <g id="Fig:densplot_01.key.text.2.3.1.1" transform="translate(164.02, 303.66)" stroke-width="0.1">
                      <g id="Fig:densplot_01.key.text.2.3.1.1.scale" transform="scale(1, -1)">
                        <text x="0" y="0" id="Fig:densplot_01.key.text.2.3.1.1.text" text-anchor="start" stroke="rgb(0,0,0)" opacity="1" fill="rgb(0,0,0)" stroke-opacity="1" fill-opacity="1" font-size="12" font-weight="normal" font-style="normal">
                          <tspan id="Fig:densplot_01.key.text.2.3.1.1.tspan.1" dy="4.31" x="0">3</tspan>
                        </text>
                      </g>
                    </g>
                  </g>
                </g>
              </g>
              <g id="Fig:densGRID.VP.781.1">
                <g id="Fig:densGRID.cellGrob.1533.1">
                  <g id="Fig:densplot_01.key.text.2.4.1">
                    <g id="Fig:densplot_01.key.text.2.4.1.1" transform="translate(164.02, 292.16)" stroke-width="0.1">
                      <g id="Fig:densplot_01.key.text.2.4.1.1.scale" transform="scale(1, -1)">
                        <text x="0" y="0" id="Fig:densplot_01.key.text.2.4.1.1.text" text-anchor="start" stroke="rgb(0,0,0)" opacity="1" fill="rgb(0,0,0)" stroke-opacity="1" fill-opacity="1" font-size="12" font-weight="normal" font-style="normal">
                          <tspan id="Fig:densplot_01.key.text.2.4.1.1.tspan.1" dy="4.31" x="0">4</tspan>
                        </text>
                      </g>
                    </g>
                  </g>
                </g>
              </g>
              <g id="Fig:densGRID.VP.782.1">
                <g id="Fig:densGRID.cellGrob.1534.1">
                  <g id="Fig:densplot_01.key.text.2.5.1">
                    <g id="Fig:densplot_01.key.text.2.5.1.1" transform="translate(164.02, 280.67)" stroke-width="0.1">
                      <g id="Fig:densplot_01.key.text.2.5.1.1.scale" transform="scale(1, -1)">
                        <text x="0" y="0" id="Fig:densplot_01.key.text.2.5.1.1.text" text-anchor="start" stroke="rgb(0,0,0)" opacity="1" fill="rgb(0,0,0)" stroke-opacity="1" fill-opacity="1" font-size="12" font-weight="normal" font-style="normal">
                          <tspan id="Fig:densplot_01.key.text.2.5.1.1.tspan.1" dy="4.31" x="0">5</tspan>
                        </text>
                      </g>
                    </g>
                  </g>
                </g>
              </g>
              <g id="Fig:densGRID.VP.783.1">
                <g id="Fig:densGRID.cellGrob.1535.1">
                  <g id="Fig:densplot_01.key.text.2.6.1">
                    <g id="Fig:densplot_01.key.text.2.6.1.1" transform="translate(164.02, 269.17)" stroke-width="0.1">
                      <g id="Fig:densplot_01.key.text.2.6.1.1.scale" transform="scale(1, -1)">
                        <text x="0" y="0" id="Fig:densplot_01.key.text.2.6.1.1.text" text-anchor="start" stroke="rgb(0,0,0)" opacity="1" fill="rgb(0,0,0)" stroke-opacity="1" fill-opacity="1" font-size="12" font-weight="normal" font-style="normal">
                          <tspan id="Fig:densplot_01.key.text.2.6.1.1.tspan.1" dy="4.31" x="0">6</tspan>
                        </text>
                      </g>
                    </g>
                  </g>
                </g>
              </g>
            </g>
          </g>
        </g>
        <g id="Fig:densplot_01.ylab.vp.1">
          <g id="Fig:densplot_01.ylab.1">
            <g id="Fig:densplot_01.ylab.1.1" transform="translate(10.31, 146.81)" stroke-width="0.1">
              <g id="Fig:densplot_01.ylab.1.1.scale" transform="scale(1, -1)">
                <text x="0" y="0" id="Fig:densplot_01.ylab.1.1.text" transform="rotate(-90)" text-anchor="middle" opacity="1" stroke="rgb(0,0,0)" fill="rgb(0,0,0)" stroke-opacity="1" fill-opacity="1" font-size="12" font-weight="normal" font-style="normal">
                  <tspan id="Fig:densplot_01.ylab.1.1.tspan.1" dy="4.31" x="0">Density</tspan>
                </text>
              </g>
            </g>
          </g>
        </g>
        <g id="Fig:densplot_01.figure.vp.1"/>
        <defs>
          <clipPath id="Fig:densplot_01.panel.1.1.vp.1.clipPath">
            <rect x="44.8" y="42.19" width="231.2" height="209.24" fill="none" stroke="none"/>
          </clipPath>
        </defs>
        <g id="Fig:densplot_01.panel.1.1.vp.1" clip-path="url(#Fig:densplot_01.panel.1.1.vp.1.clipPath)"/>
        <g id="Fig:densplot_01.strip.1.1.off.vp.1"/>
        <g id="Fig:densplot_01.strip.left.1.1.off.vp.1">
          <g id="Fig:densplot_01.ticks.left.panel.1.1.1">
            <polyline id="Fig:densplot_01.ticks.left.panel.1.1.1.1" points="44.8,55.02 39.13,55.02" stroke="rgb(0,0,0)" opacity="1" stroke-dasharray="none" stroke-width="0.75" stroke-opacity="1" fill="none"/>
            <polyline id="Fig:densplot_01.ticks.left.panel.1.1.1.2" points="44.8,90.26 39.13,90.26" stroke="rgb(0,0,0)" opacity="1" stroke-dasharray="none" stroke-width="0.75" stroke-opacity="1" fill="none"/>
            <polyline id="Fig:densplot_01.ticks.left.panel.1.1.1.3" points="44.8,125.49 39.13,125.49" stroke="rgb(0,0,0)" opacity="1" stroke-dasharray="none" stroke-width="0.75" stroke-opacity="1" fill="none"/>
            <polyline id="Fig:densplot_01.ticks.left.panel.1.1.1.4" points="44.8,160.73 39.13,160.73" stroke="rgb(0,0,0)" opacity="1" stroke-dasharray="none" stroke-width="0.75" stroke-opacity="1" fill="none"/>
            <polyline id="Fig:densplot_01.ticks.left.panel.1.1.1.5" points="44.8,195.97 39.13,195.97" stroke="rgb(0,0,0)" opacity="1" stroke-dasharray="none" stroke-width="0.75" stroke-opacity="1" fill="none"/>
            <polyline id="Fig:densplot_01.ticks.left.panel.1.1.1.6" points="44.8,231.2 39.13,231.2" stroke="rgb(0,0,0)" opacity="1" stroke-dasharray="none" stroke-width="0.75" stroke-opacity="1" fill="none"/>
          </g>
          <g id="Fig:densplot_01.ticklabels.left.panel.1.1.1">
            <g id="Fig:densplot_01.ticklabels.left.panel.1.1.1.1" transform="translate(33.47, 55.02)" stroke-width="0.1">
              <g id="Fig:densplot_01.ticklabels.left.panel.1.1.1.1.scale" transform="scale(1, -1)">
                <text x="0" y="0" id="Fig:densplot_01.ticklabels.left.panel.1.1.1.1.text" transform="rotate(-90)" text-anchor="middle" stroke="rgb(0,0,0)" opacity="1" fill="rgb(0,0,0)" stroke-opacity="1" fill-opacity="1" font-size="9.6" font-weight="normal" font-style="normal">
                  <tspan id="Fig:densplot_01.ticklabels.left.panel.1.1.1.1.tspan.1" dy="0" x="0">0.00</tspan>
                </text>
              </g>
            </g>
            <g id="Fig:densplot_01.ticklabels.left.panel.1.1.1.2" transform="translate(33.47, 90.26)" stroke-width="0.1">
              <g id="Fig:densplot_01.ticklabels.left.panel.1.1.1.2.scale" transform="scale(1, -1)">
                <text x="0" y="0" id="Fig:densplot_01.ticklabels.left.panel.1.1.1.2.text" transform="rotate(-90)" text-anchor="middle" stroke="rgb(0,0,0)" opacity="1" fill="rgb(0,0,0)" stroke-opacity="1" fill-opacity="1" font-size="9.6" font-weight="normal" font-style="normal">
                  <tspan id="Fig:densplot_01.ticklabels.left.panel.1.1.1.2.tspan.1" dy="0" x="0">0.05</tspan>
                </text>
              </g>
            </g>
            <g id="Fig:densplot_01.ticklabels.left.panel.1.1.1.3" transform="translate(33.47, 125.49)" stroke-width="0.1">
              <g id="Fig:densplot_01.ticklabels.left.panel.1.1.1.3.scale" transform="scale(1, -1)">
                <text x="0" y="0" id="Fig:densplot_01.ticklabels.left.panel.1.1.1.3.text" transform="rotate(-90)" text-anchor="middle" stroke="rgb(0,0,0)" opacity="1" fill="rgb(0,0,0)" stroke-opacity="1" fill-opacity="1" font-size="9.6" font-weight="normal" font-style="normal">
                  <tspan id="Fig:densplot_01.ticklabels.left.panel.1.1.1.3.tspan.1" dy="0" x="0">0.10</tspan>
                </text>
              </g>
            </g>
            <g id="Fig:densplot_01.ticklabels.left.panel.1.1.1.4" transform="translate(33.47, 160.73)" stroke-width="0.1">
              <g id="Fig:densplot_01.ticklabels.left.panel.1.1.1.4.scale" transform="scale(1, -1)">
                <text x="0" y="0" id="Fig:densplot_01.ticklabels.left.panel.1.1.1.4.text" transform="rotate(-90)" text-anchor="middle" stroke="rgb(0,0,0)" opacity="1" fill="rgb(0,0,0)" stroke-opacity="1" fill-opacity="1" font-size="9.6" font-weight="normal" font-style="normal">
                  <tspan id="Fig:densplot_01.ticklabels.left.panel.1.1.1.4.tspan.1" dy="0" x="0">0.15</tspan>
                </text>
              </g>
            </g>
            <g id="Fig:densplot_01.ticklabels.left.panel.1.1.1.5" transform="translate(33.47, 195.97)" stroke-width="0.1">
              <g id="Fig:densplot_01.ticklabels.left.panel.1.1.1.5.scale" transform="scale(1, -1)">
                <text x="0" y="0" id="Fig:densplot_01.ticklabels.left.panel.1.1.1.5.text" transform="rotate(-90)" text-anchor="middle" stroke="rgb(0,0,0)" opacity="1" fill="rgb(0,0,0)" stroke-opacity="1" fill-opacity="1" font-size="9.6" font-weight="normal" font-style="normal">
                  <tspan id="Fig:densplot_01.ticklabels.left.panel.1.1.1.5.tspan.1" dy="0" x="0">0.20</tspan>
                </text>
              </g>
            </g>
            <g id="Fig:densplot_01.ticklabels.left.panel.1.1.1.6" transform="translate(33.47, 231.2)" stroke-width="0.1">
              <g id="Fig:densplot_01.ticklabels.left.panel.1.1.1.6.scale" transform="scale(1, -1)">
                <text x="0" y="0" id="Fig:densplot_01.ticklabels.left.panel.1.1.1.6.text" transform="rotate(-90)" text-anchor="middle" stroke="rgb(0,0,0)" opacity="1" fill="rgb(0,0,0)" stroke-opacity="1" fill-opacity="1" font-size="9.6" font-weight="normal" font-style="normal">
                  <tspan id="Fig:densplot_01.ticklabels.left.panel.1.1.1.6.tspan.1" dy="0" x="0">0.25</tspan>
                </text>
              </g>
            </g>
          </g>
        </g>
        <g id="Fig:densplot_01.panel.1.1.off.vp.1">
          <g id="Fig:densplot_01.ticks.bottom.panel.1.1.1">
            <polyline id="Fig:densplot_01.ticks.bottom.panel.1.1.1.1" points="63.91,42.19 63.91,36.52" stroke="rgb(0,0,0)" opacity="1" stroke-dasharray="none" stroke-width="0.75" stroke-opacity="1" fill="none"/>
            <polyline id="Fig:densplot_01.ticks.bottom.panel.1.1.1.2" points="100.04,42.19 100.04,36.52" stroke="rgb(0,0,0)" opacity="1" stroke-dasharray="none" stroke-width="0.75" stroke-opacity="1" fill="none"/>
            <polyline id="Fig:densplot_01.ticks.bottom.panel.1.1.1.3" points="136.16,42.19 136.16,36.52" stroke="rgb(0,0,0)" opacity="1" stroke-dasharray="none" stroke-width="0.75" stroke-opacity="1" fill="none"/>
            <polyline id="Fig:densplot_01.ticks.bottom.panel.1.1.1.4" points="172.29,42.19 172.29,36.52" stroke="rgb(0,0,0)" opacity="1" stroke-dasharray="none" stroke-width="0.75" stroke-opacity="1" fill="none"/>
            <polyline id="Fig:densplot_01.ticks.bottom.panel.1.1.1.5" points="208.41,42.19 208.41,36.52" stroke="rgb(0,0,0)" opacity="1" stroke-dasharray="none" stroke-width="0.75" stroke-opacity="1" fill="none"/>
            <polyline id="Fig:densplot_01.ticks.bottom.panel.1.1.1.6" points="244.54,42.19 244.54,36.52" stroke="rgb(0,0,0)" opacity="1" stroke-dasharray="none" stroke-width="0.75" stroke-opacity="1" fill="none"/>
          </g>
          <g id="Fig:densplot_01.ticklabels.bottom.panel.1.1.1">
            <g id="Fig:densplot_01.ticklabels.bottom.panel.1.1.1.1" transform="translate(63.91, 30.85)" stroke-width="0.1">
              <g id="Fig:densplot_01.ticklabels.bottom.panel.1.1.1.1.scale" transform="scale(1, -1)">
                <text x="0" y="0" id="Fig:densplot_01.ticklabels.bottom.panel.1.1.1.1.text" text-anchor="middle" stroke="rgb(0,0,0)" opacity="1" fill="rgb(0,0,0)" stroke-opacity="1" fill-opacity="1" font-size="9.6" font-weight="normal" font-style="normal">
                  <tspan id="Fig:densplot_01.ticklabels.bottom.panel.1.1.1.1.tspan.1" dy="7.18" x="0">2</tspan>
                </text>
              </g>
            </g>
            <g id="Fig:densplot_01.ticklabels.bottom.panel.1.1.1.2" transform="translate(100.04, 30.85)" stroke-width="0.1">
              <g id="Fig:densplot_01.ticklabels.bottom.panel.1.1.1.2.scale" transform="scale(1, -1)">
                <text x="0" y="0" id="Fig:densplot_01.ticklabels.bottom.panel.1.1.1.2.text" text-anchor="middle" stroke="rgb(0,0,0)" opacity="1" fill="rgb(0,0,0)" stroke-opacity="1" fill-opacity="1" font-size="9.6" font-weight="normal" font-style="normal">
                  <tspan id="Fig:densplot_01.ticklabels.bottom.panel.1.1.1.2.tspan.1" dy="7.18" x="0">4</tspan>
                </text>
              </g>
            </g>
            <g id="Fig:densplot_01.ticklabels.bottom.panel.1.1.1.3" transform="translate(136.16, 30.85)" stroke-width="0.1">
              <g id="Fig:densplot_01.ticklabels.bottom.panel.1.1.1.3.scale" transform="scale(1, -1)">
                <text x="0" y="0" id="Fig:densplot_01.ticklabels.bottom.panel.1.1.1.3.text" text-anchor="middle" stroke="rgb(0,0,0)" opacity="1" fill="rgb(0,0,0)" stroke-opacity="1" fill-opacity="1" font-size="9.6" font-weight="normal" font-style="normal">
                  <tspan id="Fig:densplot_01.ticklabels.bottom.panel.1.1.1.3.tspan.1" dy="7.18" x="0">6</tspan>
                </text>
              </g>
            </g>
            <g id="Fig:densplot_01.ticklabels.bottom.panel.1.1.1.4" transform="translate(172.29, 30.85)" stroke-width="0.1">
              <g id="Fig:densplot_01.ticklabels.bottom.panel.1.1.1.4.scale" transform="scale(1, -1)">
                <text x="0" y="0" id="Fig:densplot_01.ticklabels.bottom.panel.1.1.1.4.text" text-anchor="middle" stroke="rgb(0,0,0)" opacity="1" fill="rgb(0,0,0)" stroke-opacity="1" fill-opacity="1" font-size="9.6" font-weight="normal" font-style="normal">
                  <tspan id="Fig:densplot_01.ticklabels.bottom.panel.1.1.1.4.tspan.1" dy="7.18" x="0">8</tspan>
                </text>
              </g>
            </g>
            <g id="Fig:densplot_01.ticklabels.bottom.panel.1.1.1.5" transform="translate(208.41, 30.85)" stroke-width="0.1">
              <g id="Fig:densplot_01.ticklabels.bottom.panel.1.1.1.5.scale" transform="scale(1, -1)">
                <text x="0" y="0" id="Fig:densplot_01.ticklabels.bottom.panel.1.1.1.5.text" text-anchor="middle" stroke="rgb(0,0,0)" opacity="1" fill="rgb(0,0,0)" stroke-opacity="1" fill-opacity="1" font-size="9.6" font-weight="normal" font-style="normal">
                  <tspan id="Fig:densplot_01.ticklabels.bottom.panel.1.1.1.5.tspan.1" dy="7.18" x="0">10</tspan>
                </text>
              </g>
            </g>
            <g id="Fig:densplot_01.ticklabels.bottom.panel.1.1.1.6" transform="translate(244.54, 30.85)" stroke-width="0.1">
              <g id="Fig:densplot_01.ticklabels.bottom.panel.1.1.1.6.scale" transform="scale(1, -1)">
                <text x="0" y="0" id="Fig:densplot_01.ticklabels.bottom.panel.1.1.1.6.text" text-anchor="middle" stroke="rgb(0,0,0)" opacity="1" fill="rgb(0,0,0)" stroke-opacity="1" fill-opacity="1" font-size="9.6" font-weight="normal" font-style="normal">
                  <tspan id="Fig:densplot_01.ticklabels.bottom.panel.1.1.1.6.tspan.1" dy="7.18" x="0">12</tspan>
                </text>
              </g>
            </g>
          </g>
        </g>
        <defs>
          <clipPath id="Fig:densplot_01.panel.1.1.vp.2.clipPath">
            <rect x="44.8" y="42.19" width="231.2" height="209.24" fill="none" stroke="none"/>
          </clipPath>
        </defs>
        <g id="Fig:densplot_01.panel.1.1.vp.2" clip-path="url(#Fig:densplot_01.panel.1.1.vp.2.clipPath)">
          <g id="Fig:densplot_01.xyplot.lines.group.1.panel.1.1.1">
            <polyline id="Fig:densplot_01.xyplot.lines.group.1.panel.1.1.1.1" points="59.25,55.04 59.64,55.04 60.04,55.05 60.44,55.06 60.83,55.08 61.23,55.1 61.62,55.12 62.02,55.15 62.42,55.19 62.81,55.25 63.21,55.31 63.61,55.4 64,55.5 64.4,55.63 64.8,55.79 65.19,55.98 65.59,56.22 65.98,56.51 66.38,56.87 66.78,57.28 67.17,57.78 67.57,58.36 67.97,59.04 68.36,59.85 68.76,60.79 69.16,61.87 69.55,63.1 69.95,64.49 70.35,66.07 70.74,67.85 71.14,69.86 71.53,72.1 71.93,74.57 72.33,77.27 72.72,80.22 73.12,83.42 73.52,86.91 73.91,90.67 74.31,94.67 74.71,98.93 75.1,103.41 75.5,108.13 75.89,113.05 76.29,118.2 76.69,123.52 77.08,128.98 77.48,134.56 77.88,140.23 78.27,145.97 78.67,151.74 79.07,157.51 79.46,163.24 79.86,168.91 80.25,174.49 80.65,179.95 81.05,185.26 81.44,190.37 81.84,195.27 82.24,199.94 82.63,204.38 83.03,208.56 83.43,212.49 83.82,216.14 84.22,219.45 84.62,222.49 85.01,225.24 85.41,227.71 85.8,229.91 86.2,231.85 86.6,233.5 86.99,234.88 87.39,236.02 87.79,236.93 88.18,237.63 88.58,238.14 88.98,238.45 89.37,238.58 89.77,238.52 90.16,238.33 90.56,238 90.96,237.54 91.35,236.96 91.75,236.28 92.15,235.49 92.54,234.61 92.94,233.64 93.34,232.61 93.73,231.51 94.13,230.34 94.52,229.12 94.92,227.84 95.32,226.51 95.71,225.15 96.11,223.75 96.51,222.32 96.9,220.86 97.3,219.37 97.7,217.86 98.09,216.34 98.49,214.81 98.88,213.28 99.28,211.74 99.68,210.2 100.07,208.67 100.47,207.15 100.87,205.65 101.26,204.17 101.66,202.71 102.06,201.27 102.45,199.86 102.85,198.49 103.25,197.15 103.64,195.84 104.04,194.57 104.43,193.33 104.83,192.13 105.23,190.96 105.62,189.83 106.02,188.73 106.42,187.65 106.81,186.6 107.21,185.57 107.61,184.56 108,183.57 108.4,182.59 108.79,181.61 109.19,180.64 109.59,179.68 109.98,178.71 110.38,177.75 110.78,176.78 111.17,175.8 111.57,174.82 111.97,173.83 112.36,172.84 112.76,171.85 113.15,170.85 113.55,169.84 113.95,168.84 114.34,167.84 114.74,166.84 115.14,165.84 115.53,164.85 115.93,163.87 116.33,162.9 116.72,161.94 117.12,160.99 117.52,160.06 117.91,159.15 118.31,158.25 118.7,157.38 119.1,156.51 119.5,155.67 119.89,154.85 120.29,154.04 120.69,153.24 121.08,152.46 121.48,151.7 121.88,150.95 122.27,150.21 122.67,149.47 123.06,148.75 123.46,148.03 123.86,147.32 124.25,146.61 124.65,145.91 125.05,145.21 125.44,144.51 125.84,143.81 126.24,143.11 126.63,142.41 127.03,141.71 127.42,141.01 127.82,140.31 128.22,139.61 128.61,138.92 129.01,138.23 129.41,137.54 129.8,136.85 130.2,136.17 130.6,135.5 130.99,134.83 131.39,134.17 131.78,133.52 132.18,132.88 132.58,132.26 132.97,131.64 133.37,131.04 133.77,130.45 134.16,129.88 134.56,129.33 134.96,128.79 135.35,128.27 135.75,127.76 136.15,127.27 136.54,126.8 136.94,126.34 137.33,125.9 137.73,125.47 138.13,125.06 138.52,124.66 138.92,124.27 139.32,123.89 139.71,123.53 140.11,123.18 140.51,122.83 140.9,122.5 141.3,122.17 141.69,121.85 142.09,121.54 142.49,121.24 142.88,120.94 143.28,120.65 143.68,120.37 144.07,120.09 144.47,119.81 144.87,119.54 145.26,119.28 145.66,119.01 146.05,118.75 146.45,118.48 146.85,118.22 147.24,117.96 147.64,117.7 148.04,117.45 148.43,117.19 148.83,116.93 149.23,116.67 149.62,116.42 150.02,116.17 150.42,115.92 150.81,115.68 151.21,115.44 151.6,115.21 152,114.99 152.4,114.77 152.79,114.57 153.19,114.38 153.59,114.2 153.98,114.04 154.38,113.88 154.78,113.75 155.17,113.62 155.57,113.52 155.96,113.42 156.36,113.34 156.76,113.27 157.15,113.22 157.55,113.17 157.95,113.13 158.34,113.09 158.74,113.06 159.14,113.04 159.53,113.01 159.93,112.98 160.32,112.94 160.72,112.9 161.12,112.85 161.51,112.79 161.91,112.72 162.31,112.64 162.7,112.55 163.1,112.46 163.5,112.35 163.89,112.24 164.29,112.12 164.68,111.99 165.08,111.87 165.48,111.74 165.87,111.62 166.27,111.51 166.67,111.4 167.06,111.3 167.46,111.21 167.86,111.13 168.25,111.07 168.65,111.02 169.05,110.99 169.44,110.97 169.84,110.96 170.23,110.96 170.63,110.97 171.03,110.99 171.42,111.01 171.82,111.04 172.22,111.07 172.61,111.1 173.01,111.12 173.41,111.14 173.8,111.15 174.2,111.14 174.59,111.13 174.99,111.11 175.39,111.07 175.78,111.02 176.18,110.96 176.58,110.89 176.97,110.8 177.37,110.71 177.77,110.62 178.16,110.51 178.56,110.41 178.95,110.3 179.35,110.19 179.75,110.09 180.14,109.99 180.54,109.89 180.94,109.79 181.33,109.7 181.73,109.61 182.13,109.53 182.52,109.45 182.92,109.37 183.32,109.29 183.71,109.22 184.11,109.14 184.5,109.05 184.9,108.97 185.3,108.87 185.69,108.78 186.09,108.67 186.49,108.57 186.88,108.45 187.28,108.33 187.68,108.21 188.07,108.08 188.47,107.96 188.86,107.83 189.26,107.69 189.66,107.56 190.05,107.43 190.45,107.3 190.85,107.18 191.24,107.05 191.64,106.93 192.04,106.8 192.43,106.68 192.83,106.55 193.22,106.42 193.62,106.29 194.02,106.15 194.41,106.01 194.81,105.85 195.21,105.69 195.6,105.51 196,105.32 196.4,105.12 196.79,104.9 197.19,104.67 197.58,104.43 197.98,104.16 198.38,103.89 198.77,103.6 199.17,103.3 199.57,102.98 199.96,102.66 200.36,102.32 200.76,101.98 201.15,101.62 201.55,101.26 201.95,100.89 202.34,100.52 202.74,100.14 203.13,99.76 203.53,99.37 203.93,98.98 204.32,98.59 204.72,98.2 205.12,97.81 205.51,97.42 205.91,97.03 206.31,96.65 206.7,96.26 207.1,95.87 207.49,95.49 207.89,95.11 208.29,94.73 208.68,94.35 209.08,93.98 209.48,93.61 209.87,93.24 210.27,92.88 210.67,92.52 211.06,92.16 211.46,91.81 211.85,91.47 212.25,91.13 212.65,90.79 213.04,90.46 213.44,90.13 213.84,89.82 214.23,89.5 214.63,89.2 215.03,88.89 215.42,88.6 215.82,88.3 216.22,88.02 216.61,87.73 217.01,87.45 217.4,87.16 217.8,86.88 218.2,86.59 218.59,86.31 218.99,86.02 219.39,85.72 219.78,85.42 220.18,85.11 220.58,84.8 220.97,84.49 221.37,84.16 221.76,83.83 222.16,83.5 222.56,83.16 222.95,82.81 223.35,82.46 223.75,82.11 224.14,81.76 224.54,81.4 224.94,81.04 225.33,80.69 225.73,80.33 226.12,79.98 226.52,79.63 226.92,79.28 227.31,78.93 227.71,78.59 228.11,78.25 228.5,77.91 228.9,77.58 229.3,77.25 229.69,76.92 230.09,76.6 230.48,76.28 230.88,75.96 231.28,75.65 231.67,75.34 232.07,75.03 232.47,74.73 232.86,74.43 233.26,74.13 233.66,73.83 234.05,73.54 234.45,73.25 234.85,72.96 235.24,72.68 235.64,72.4 236.03,72.12 236.43,71.83 236.83,71.55 237.22,71.27 237.62,70.99 238.02,70.71 238.41,70.42 238.81,70.13 239.21,69.84 239.6,69.54 240,69.24 240.39,68.92 240.79,68.6 241.19,68.27 241.58,67.93 241.98,67.58 242.38,67.22 242.77,66.85 243.17,66.47 243.57,66.07 243.96,65.67 244.36,65.25 244.75,64.82 245.15,64.39 245.55,63.94 245.94,63.49 246.34,63.03 246.74,62.57 247.13,62.11 247.53,61.66 247.93,61.2 248.32,60.75 248.72,60.31 249.11,59.88 249.51,59.47 249.91,59.07 250.3,58.68 250.7,58.32 251.1,57.98 251.49,57.65 251.89,57.35 252.29,57.08 252.68,56.82 253.08,56.58 253.48,56.37 253.87,56.19 254.27,56.02 254.66,55.87 255.06,55.73 255.46,55.62 255.85,55.52 256.25,55.43 256.65,55.36 257.04,55.3 257.44,55.25 257.84,55.2 258.23,55.17 258.63,55.14 259.02,55.11 259.42,55.09 259.82,55.08 260.21,55.06 260.61,55.05 261.01,55.05 261.4,55.04 261.8,55.04" stroke-dasharray="none" stroke="rgb(228,26,28)" stroke-width="0.75" opacity="1" stroke-opacity="1" fill="none"/>
          </g>
          <g id="Fig:densplot_01.xyplot.lines.group.2.panel.1.1.1">
            <polyline id="Fig:densplot_01.xyplot.lines.group.2.panel.1.1.1.1" points="59.12,55.04 59.51,55.04 59.91,55.05 60.31,55.06 60.7,55.08 61.1,55.1 61.49,55.12 61.89,55.15 62.29,55.19 62.68,55.25 63.08,55.31 63.48,55.4 63.87,55.5 64.27,55.63 64.67,55.79 65.06,55.99 65.46,56.23 65.85,56.52 66.25,56.87 66.65,57.28 67.04,57.77 67.44,58.36 67.84,59.05 68.23,59.85 68.63,60.78 69.03,61.83 69.42,63.04 69.82,64.41 70.21,65.98 70.61,67.74 71.01,69.7 71.4,71.86 71.8,74.23 72.2,76.82 72.59,79.68 72.99,82.78 73.38,86.12 73.78,89.68 74.18,93.46 74.57,97.46 74.97,101.68 75.37,106.12 75.76,110.75 76.16,115.53 76.56,120.45 76.95,125.49 77.35,130.64 77.74,135.86 78.14,141.13 78.54,146.41 78.93,151.68 79.33,156.92 79.73,162.09 80.12,167.18 80.52,172.15 80.91,176.97 81.31,181.63 81.71,186.12 82.1,190.42 82.5,194.51 82.9,198.39 83.29,202.01 83.69,205.38 84.09,208.51 84.48,211.41 84.88,214.06 85.27,216.48 85.67,218.65 86.07,220.55 86.46,222.24 86.86,223.71 87.26,224.97 87.65,226.04 88.05,226.93 88.44,227.63 88.84,228.15 89.24,228.52 89.63,228.75 90.03,228.86 90.43,228.85 90.82,228.73 91.22,228.5 91.62,228.17 92.01,227.76 92.41,227.27 92.8,226.72 93.2,226.1 93.6,225.42 93.99,224.67 94.39,223.87 94.79,223.03 95.18,222.14 95.58,221.2 95.97,220.23 96.37,219.22 96.77,218.17 97.16,217.09 97.56,215.98 97.96,214.85 98.35,213.7 98.75,212.54 99.15,211.36 99.54,210.17 99.94,208.98 100.33,207.79 100.73,206.6 101.13,205.42 101.52,204.24 101.92,203.09 102.32,201.94 102.71,200.81 103.11,199.7 103.5,198.61 103.9,197.53 104.3,196.47 104.69,195.44 105.09,194.42 105.49,193.41 105.88,192.42 106.28,191.44 106.68,190.48 107.07,189.52 107.47,188.58 107.86,187.64 108.26,186.71 108.66,185.78 109.05,184.86 109.45,183.94 109.85,183.03 110.24,182.11 110.64,181.2 111.03,180.29 111.43,179.38 111.83,178.46 112.22,177.55 112.62,176.64 113.02,175.73 113.41,174.82 113.81,173.91 114.21,173 114.6,172.09 115,171.18 115.39,170.27 115.79,169.36 116.19,168.45 116.58,167.54 116.98,166.63 117.38,165.72 117.77,164.81 118.17,163.91 118.56,163 118.96,162.1 119.36,161.2 119.75,160.31 120.15,159.42 120.55,158.53 120.94,157.66 121.34,156.79 121.74,155.93 122.13,155.08 122.53,154.24 122.92,153.41 123.32,152.6 123.72,151.8 124.11,151.02 124.51,150.25 124.91,149.5 125.3,148.77 125.7,148.05 126.09,147.35 126.49,146.67 126.89,146 127.28,145.35 127.68,144.71 128.08,144.08 128.47,143.47 128.87,142.86 129.27,142.27 129.66,141.68 130.06,141.1 130.45,140.53 130.85,139.96 131.25,139.39 131.64,138.83 132.04,138.28 132.44,137.73 132.83,137.18 133.23,136.64 133.62,136.1 134.02,135.57 134.42,135.04 134.81,134.52 135.21,134.01 135.61,133.51 136,133.01 136.4,132.52 136.8,132.05 137.19,131.58 137.59,131.12 137.98,130.66 138.38,130.21 138.78,129.77 139.17,129.34 139.57,128.91 139.97,128.48 140.36,128.06 140.76,127.63 141.15,127.21 141.55,126.78 141.95,126.36 142.34,125.93 142.74,125.49 143.14,125.06 143.53,124.62 143.93,124.18 144.33,123.74 144.72,123.3 145.12,122.86 145.51,122.43 145.91,122 146.31,121.58 146.7,121.17 147.1,120.76 147.5,120.37 147.89,119.99 148.29,119.63 148.69,119.27 149.08,118.94 149.48,118.61 149.87,118.3 150.27,118 150.67,117.72 151.06,117.45 151.46,117.18 151.86,116.93 152.25,116.69 152.65,116.45 153.04,116.23 153.44,116.01 153.84,115.8 154.23,115.59 154.63,115.39 155.03,115.2 155.42,115.01 155.82,114.83 156.22,114.66 156.61,114.5 157.01,114.34 157.4,114.18 157.8,114.03 158.2,113.89 158.59,113.75 158.99,113.62 159.39,113.49 159.78,113.36 160.18,113.24 160.57,113.11 160.97,112.99 161.37,112.87 161.76,112.74 162.16,112.62 162.56,112.49 162.95,112.36 163.35,112.23 163.75,112.09 164.14,111.96 164.54,111.82 164.93,111.69 165.33,111.55 165.73,111.42 166.12,111.29 166.52,111.17 166.92,111.05 167.31,110.94 167.71,110.83 168.1,110.73 168.5,110.64 168.9,110.56 169.29,110.49 169.69,110.42 170.09,110.36 170.48,110.31 170.88,110.27 171.28,110.23 171.67,110.19 172.07,110.16 172.46,110.13 172.86,110.1 173.26,110.06 173.65,110.03 174.05,110 174.45,109.96 174.84,109.91 175.24,109.86 175.63,109.81 176.03,109.75 176.43,109.69 176.82,109.62 177.22,109.54 177.62,109.46 178.01,109.38 178.41,109.29 178.81,109.21 179.2,109.11 179.6,109.02 179.99,108.93 180.39,108.83 180.79,108.74 181.18,108.64 181.58,108.54 181.98,108.45 182.37,108.35 182.77,108.25 183.16,108.15 183.56,108.04 183.96,107.94 184.35,107.84 184.75,107.73 185.15,107.62 185.54,107.51 185.94,107.4 186.34,107.28 186.73,107.17 187.13,107.05 187.52,106.93 187.92,106.82 188.32,106.7 188.71,106.58 189.11,106.47 189.51,106.35 189.9,106.24 190.3,106.13 190.69,106.01 191.09,105.9 191.49,105.79 191.88,105.67 192.28,105.55 192.68,105.43 193.07,105.3 193.47,105.16 193.87,105.02 194.26,104.87 194.66,104.7 195.05,104.53 195.45,104.34 195.85,104.13 196.24,103.91 196.64,103.68 197.04,103.43 197.43,103.16 197.83,102.88 198.22,102.58 198.62,102.27 199.02,101.95 199.41,101.61 199.81,101.26 200.21,100.9 200.6,100.53 201,100.16 201.4,99.77 201.79,99.39 202.19,99 202.58,98.6 202.98,98.21 203.38,97.81 203.77,97.42 204.17,97.03 204.57,96.65 204.96,96.27 205.36,95.89 205.75,95.53 206.15,95.16 206.55,94.81 206.94,94.46 207.34,94.12 207.74,93.78 208.13,93.45 208.53,93.13 208.93,92.81 209.32,92.5 209.72,92.19 210.11,91.89 210.51,91.59 210.91,91.29 211.3,91 211.7,90.72 212.1,90.43 212.49,90.15 212.89,89.87 213.28,89.59 213.68,89.31 214.08,89.04 214.47,88.76 214.87,88.48 215.27,88.21 215.66,87.93 216.06,87.65 216.46,87.36 216.85,87.07 217.25,86.78 217.64,86.48 218.04,86.17 218.44,85.86 218.83,85.55 219.23,85.23 219.63,84.9 220.02,84.56 220.42,84.22 220.82,83.88 221.21,83.53 221.61,83.18 222,82.82 222.4,82.47 222.8,82.11 223.19,81.75 223.59,81.4 223.99,81.04 224.38,80.69 224.78,80.35 225.17,80 225.57,79.67 225.97,79.33 226.36,79 226.76,78.68 227.16,78.36 227.55,78.05 227.95,77.74 228.35,77.43 228.74,77.13 229.14,76.84 229.53,76.55 229.93,76.26 230.33,75.97 230.72,75.68 231.12,75.4 231.52,75.11 231.91,74.83 232.31,74.55 232.7,74.27 233.1,73.99 233.5,73.71 233.89,73.43 234.29,73.15 234.69,72.87 235.08,72.59 235.48,72.31 235.88,72.03 236.27,71.75 236.67,71.47 237.06,71.2 237.46,70.92 237.86,70.64 238.25,70.36 238.65,70.08 239.05,69.79 239.44,69.51 239.84,69.22 240.23,68.92 240.63,68.62 241.03,68.31 241.42,68 241.82,67.67 242.22,67.34 242.61,66.99 243.01,66.64 243.41,66.27 243.8,65.89 244.2,65.49 244.59,65.08 244.99,64.67 245.39,64.24 245.78,63.8 246.18,63.35 246.58,62.9 246.97,62.44 247.37,61.98 247.76,61.52 248.16,61.06 248.56,60.61 248.95,60.17 249.35,59.74 249.75,59.32 250.14,58.92 250.54,58.54 250.94,58.17 251.33,57.83 251.73,57.51 252.12,57.22 252.52,56.95 252.92,56.7 253.31,56.47 253.71,56.26 254.11,56.08 254.5,55.92 254.9,55.78 255.29,55.66 255.69,55.55 256.09,55.46 256.48,55.38 256.88,55.31 257.28,55.26 257.67,55.21 258.07,55.17 258.47,55.14 258.86,55.12 259.26,55.09 259.65,55.08 260.05,55.07 260.45,55.06 260.84,55.05 261.24,55.04 261.64,55.04" stroke-dasharray="none" stroke="rgb(55,126,184)" stroke-width="0.75" opacity="1" stroke-opacity="1" fill="none"/>
          </g>
          <g id="Fig:densplot_01.xyplot.lines.group.3.panel.1.1.1">
            <polyline id="Fig:densplot_01.xyplot.lines.group.3.panel.1.1.1.1" points="59.59,55.04 59.99,55.05 60.38,55.06 60.78,55.07 61.17,55.09 61.57,55.11 61.96,55.14 62.36,55.18 62.76,55.23 63.15,55.29 63.55,55.37 63.94,55.47 64.34,55.6 64.73,55.75 65.13,55.94 65.52,56.17 65.92,56.46 66.32,56.8 66.71,57.22 67.11,57.71 67.5,58.28 67.9,58.96 68.29,59.76 68.69,60.7 69.08,61.77 69.48,63 69.87,64.4 70.27,65.97 70.67,67.74 71.06,69.75 71.46,71.99 71.85,74.44 72.25,77.13 72.64,80.06 73.04,83.23 73.43,86.66 73.83,90.37 74.23,94.31 74.62,98.47 75.02,102.85 75.41,107.44 75.81,112.21 76.2,117.17 76.6,122.29 76.99,127.53 77.39,132.86 77.79,138.26 78.18,143.7 78.58,149.17 78.97,154.62 79.37,160.02 79.76,165.36 80.16,170.59 80.55,175.71 80.95,180.69 81.35,185.51 81.74,190.11 82.14,194.51 82.53,198.69 82.93,202.66 83.32,206.39 83.72,209.88 84.11,213.09 84.51,216.04 84.91,218.74 85.3,221.19 85.7,223.4 86.09,225.38 86.49,227.12 86.88,228.6 87.28,229.85 87.67,230.91 88.07,231.77 88.46,232.45 88.86,232.95 89.26,233.28 89.65,233.43 90.05,233.44 90.44,233.32 90.84,233.08 91.23,232.72 91.63,232.26 92.02,231.7 92.42,231.04 92.82,230.3 93.21,229.49 93.61,228.62 94,227.68 94.4,226.69 94.79,225.64 95.19,224.55 95.58,223.41 95.98,222.24 96.38,221.04 96.77,219.82 97.17,218.56 97.56,217.29 97.96,216 98.35,214.69 98.75,213.38 99.14,212.05 99.54,210.73 99.94,209.4 100.33,208.07 100.73,206.75 101.12,205.43 101.52,204.11 101.91,202.81 102.31,201.51 102.7,200.23 103.1,198.95 103.49,197.69 103.89,196.45 104.29,195.21 104.68,193.99 105.08,192.78 105.47,191.58 105.87,190.4 106.26,189.24 106.66,188.09 107.05,186.96 107.45,185.85 107.85,184.76 108.24,183.69 108.64,182.64 109.03,181.61 109.43,180.61 109.82,179.62 110.22,178.66 110.61,177.73 111.01,176.82 111.41,175.93 111.8,175.06 112.2,174.21 112.59,173.37 112.99,172.54 113.38,171.73 113.78,170.93 114.17,170.13 114.57,169.33 114.97,168.54 115.36,167.74 115.76,166.94 116.15,166.13 116.55,165.32 116.94,164.5 117.34,163.68 117.73,162.85 118.13,162.01 118.53,161.17 118.92,160.32 119.32,159.48 119.71,158.63 120.11,157.78 120.5,156.94 120.9,156.1 121.29,155.26 121.69,154.43 122.08,153.6 122.48,152.79 122.88,151.98 123.27,151.17 123.67,150.38 124.06,149.59 124.46,148.81 124.85,148.04 125.25,147.28 125.64,146.52 126.04,145.77 126.44,145.03 126.83,144.3 127.23,143.57 127.62,142.86 128.02,142.15 128.41,141.45 128.81,140.75 129.2,140.07 129.6,139.4 130,138.74 130.39,138.09 130.79,137.45 131.18,136.81 131.58,136.19 131.97,135.58 132.37,134.98 132.76,134.39 133.16,133.8 133.56,133.23 133.95,132.66 134.35,132.1 134.74,131.55 135.14,131.01 135.53,130.47 135.93,129.95 136.32,129.43 136.72,128.93 137.11,128.43 137.51,127.95 137.91,127.47 138.3,127.02 138.7,126.57 139.09,126.14 139.49,125.72 139.88,125.32 140.28,124.93 140.67,124.56 141.07,124.2 141.47,123.85 141.86,123.52 142.26,123.19 142.65,122.88 143.05,122.58 143.44,122.28 143.84,121.99 144.23,121.7 144.63,121.41 145.03,121.12 145.42,120.83 145.82,120.55 146.21,120.26 146.61,119.97 147,119.68 147.4,119.38 147.79,119.08 148.19,118.79 148.59,118.49 148.98,118.2 149.38,117.9 149.77,117.61 150.17,117.32 150.56,117.04 150.96,116.77 151.35,116.51 151.75,116.25 152.15,116 152.54,115.77 152.94,115.55 153.33,115.34 153.73,115.15 154.12,114.97 154.52,114.8 154.91,114.64 155.31,114.5 155.7,114.38 156.1,114.27 156.5,114.17 156.89,114.08 157.29,113.99 157.68,113.92 158.08,113.86 158.47,113.8 158.87,113.74 159.26,113.68 159.66,113.63 160.06,113.57 160.45,113.51 160.85,113.45 161.24,113.38 161.64,113.3 162.03,113.21 162.43,113.12 162.82,113.02 163.22,112.92 163.62,112.8 164.01,112.68 164.41,112.55 164.8,112.42 165.2,112.28 165.59,112.15 165.99,112.01 166.38,111.87 166.78,111.74 167.18,111.61 167.57,111.48 167.97,111.36 168.36,111.25 168.76,111.15 169.15,111.06 169.55,110.97 169.94,110.9 170.34,110.83 170.73,110.77 171.13,110.72 171.53,110.67 171.92,110.63 172.32,110.59 172.71,110.56 173.11,110.52 173.5,110.49 173.9,110.45 174.29,110.42 174.69,110.38 175.09,110.34 175.48,110.29 175.88,110.24 176.27,110.19 176.67,110.13 177.06,110.08 177.46,110.01 177.85,109.95 178.25,109.89 178.65,109.82 179.04,109.76 179.44,109.69 179.83,109.63 180.23,109.57 180.62,109.5 181.02,109.44 181.41,109.37 181.81,109.3 182.21,109.23 182.6,109.15 183,109.07 183.39,108.99 183.79,108.9 184.18,108.8 184.58,108.69 184.97,108.57 185.37,108.45 185.77,108.32 186.16,108.18 186.56,108.03 186.95,107.88 187.35,107.72 187.74,107.56 188.14,107.4 188.53,107.23 188.93,107.07 189.32,106.9 189.72,106.75 190.12,106.59 190.51,106.44 190.91,106.3 191.3,106.16 191.7,106.02 192.09,105.89 192.49,105.77 192.88,105.65 193.28,105.52 193.68,105.4 194.07,105.27 194.47,105.14 194.86,105 195.26,104.86 195.65,104.7 196.05,104.53 196.44,104.34 196.84,104.15 197.24,103.93 197.63,103.7 198.03,103.45 198.42,103.18 198.82,102.89 199.21,102.59 199.61,102.28 200,101.95 200.4,101.6 200.8,101.24 201.19,100.87 201.59,100.49 201.98,100.11 202.38,99.72 202.77,99.33 203.17,98.93 203.56,98.53 203.96,98.14 204.35,97.74 204.75,97.35 205.15,96.97 205.54,96.59 205.94,96.21 206.33,95.84 206.73,95.48 207.12,95.12 207.52,94.77 207.91,94.43 208.31,94.09 208.71,93.75 209.1,93.42 209.5,93.1 209.89,92.77 210.29,92.45 210.68,92.14 211.08,91.82 211.47,91.51 211.87,91.2 212.27,90.89 212.66,90.58 213.06,90.28 213.45,89.97 213.85,89.67 214.24,89.37 214.64,89.07 215.03,88.77 215.43,88.47 215.83,88.17 216.22,87.87 216.62,87.57 217.01,87.27 217.41,86.97 217.8,86.66 218.2,86.35 218.59,86.04 218.99,85.72 219.38,85.4 219.78,85.08 220.18,84.75 220.57,84.41 220.97,84.08 221.36,83.74 221.76,83.39 222.15,83.04 222.55,82.69 222.94,82.34 223.34,81.99 223.74,81.64 224.13,81.29 224.53,80.94 224.92,80.59 225.32,80.25 225.71,79.91 226.11,79.57 226.5,79.24 226.9,78.91 227.3,78.59 227.69,78.27 228.09,77.96 228.48,77.65 228.88,77.34 229.27,77.04 229.67,76.75 230.06,76.45 230.46,76.16 230.86,75.87 231.25,75.58 231.65,75.3 232.04,75.01 232.44,74.72 232.83,74.44 233.23,74.15 233.62,73.86 234.02,73.58 234.42,73.29 234.81,72.99 235.21,72.7 235.6,72.41 236,72.11 236.39,71.82 236.79,71.52 237.18,71.22 237.58,70.92 237.97,70.62 238.37,70.31 238.77,70.01 239.16,69.7 239.56,69.38 239.95,69.07 240.35,68.75 240.74,68.42 241.14,68.09 241.53,67.75 241.93,67.4 242.33,67.04 242.72,66.68 243.12,66.31 243.51,65.92 243.91,65.53 244.3,65.12 244.7,64.71 245.09,64.29 245.49,63.86 245.89,63.42 246.28,62.98 246.68,62.53 247.07,62.09 247.47,61.64 247.86,61.19 248.26,60.75 248.65,60.32 249.05,59.9 249.45,59.49 249.84,59.09 250.24,58.71 250.63,58.35 251.03,58.01 251.42,57.69 251.82,57.39 252.21,57.11 252.61,56.85 253,56.61 253.4,56.4 253.8,56.21 254.19,56.04 254.59,55.89 254.98,55.75 255.38,55.63 255.77,55.53 256.17,55.44 256.56,55.37 256.96,55.31 257.36,55.25 257.75,55.21 258.15,55.17 258.54,55.14 258.94,55.12 259.33,55.1 259.73,55.08 260.12,55.07 260.52,55.06 260.92,55.05 261.31,55.04 261.71,55.04" stroke-dasharray="none" stroke="rgb(77,175,74)" stroke-width="0.75" opacity="1" stroke-opacity="1" fill="none"/>
          </g>
          <g id="Fig:densplot_01.xyplot.lines.group.4.panel.1.1.1">
            <polyline id="Fig:densplot_01.xyplot.lines.group.4.panel.1.1.1.1" points="59.05,55.04 59.45,55.04 59.84,55.05 60.24,55.06 60.64,55.08 61.03,55.1 61.43,55.12 61.83,55.16 62.22,55.2 62.62,55.25 63.02,55.32 63.41,55.41 63.81,55.51 64.21,55.65 64.6,55.81 65,56.01 65.4,56.26 65.79,56.57 66.19,56.94 66.59,57.38 66.99,57.9 67.38,58.51 67.78,59.22 68.18,60.07 68.57,61.06 68.97,62.2 69.37,63.49 69.76,64.96 70.16,66.61 70.56,68.48 70.95,70.6 71.35,72.94 71.75,75.52 72.14,78.34 72.54,81.41 72.94,84.74 73.33,88.35 73.73,92.23 74.13,96.36 74.52,100.73 74.92,105.32 75.32,110.12 75.71,115.12 76.11,120.32 76.51,125.67 76.9,131.13 77.3,136.69 77.7,142.31 78.09,147.97 78.49,153.63 78.89,159.26 79.29,164.82 79.68,170.29 80.08,175.65 80.48,180.86 80.87,185.9 81.27,190.73 81.67,195.33 82.06,199.7 82.46,203.83 82.86,207.71 83.25,211.33 83.65,214.69 84.05,217.73 84.44,220.49 84.84,222.99 85.24,225.23 85.63,227.22 86.03,228.95 86.43,230.43 86.82,231.64 87.22,232.64 87.62,233.42 88.01,234.01 88.41,234.41 88.81,234.63 89.2,234.67 89.6,234.55 90,234.29 90.4,233.89 90.79,233.39 91.19,232.77 91.59,232.06 91.98,231.24 92.38,230.35 92.78,229.39 93.17,228.37 93.57,227.29 93.97,226.17 94.36,225.01 94.76,223.81 95.16,222.59 95.55,221.33 95.95,220.06 96.35,218.78 96.74,217.47 97.14,216.16 97.54,214.83 97.93,213.5 98.33,212.17 98.73,210.82 99.12,209.48 99.52,208.13 99.92,206.79 100.31,205.44 100.71,204.1 101.11,202.76 101.5,201.42 101.9,200.09 102.3,198.77 102.7,197.45 103.09,196.15 103.49,194.85 103.89,193.57 104.28,192.29 104.68,191.03 105.08,189.79 105.47,188.56 105.87,187.34 106.27,186.14 106.66,184.95 107.06,183.78 107.46,182.62 107.85,181.48 108.25,180.35 108.65,179.24 109.04,178.15 109.44,177.07 109.84,176.01 110.23,174.96 110.63,173.93 111.03,172.92 111.42,171.92 111.82,170.94 112.22,169.98 112.61,169.03 113.01,168.1 113.41,167.19 113.81,166.29 114.2,165.41 114.6,164.55 115,163.7 115.39,162.86 115.79,162.04 116.19,161.24 116.58,160.44 116.98,159.66 117.38,158.89 117.77,158.14 118.17,157.39 118.57,156.66 118.96,155.94 119.36,155.22 119.76,154.52 120.15,153.82 120.55,153.13 120.95,152.44 121.34,151.76 121.74,151.09 122.14,150.42 122.53,149.76 122.93,149.09 123.33,148.43 123.72,147.77 124.12,147.11 124.52,146.45 124.91,145.79 125.31,145.13 125.71,144.46 126.11,143.8 126.5,143.13 126.9,142.45 127.3,141.78 127.69,141.11 128.09,140.43 128.49,139.75 128.88,139.08 129.28,138.4 129.68,137.73 130.07,137.07 130.47,136.41 130.87,135.75 131.26,135.11 131.66,134.47 132.06,133.85 132.45,133.23 132.85,132.63 133.25,132.04 133.64,131.46 134.04,130.89 134.44,130.33 134.83,129.79 135.23,129.25 135.63,128.73 136.02,128.22 136.42,127.71 136.82,127.22 137.22,126.74 137.61,126.27 138.01,125.81 138.41,125.36 138.8,124.91 139.2,124.48 139.6,124.07 139.99,123.66 140.39,123.27 140.79,122.9 141.18,122.54 141.58,122.19 141.98,121.86 142.37,121.55 142.77,121.26 143.17,120.99 143.56,120.73 143.96,120.49 144.36,120.27 144.75,120.06 145.15,119.88 145.55,119.7 145.94,119.54 146.34,119.39 146.74,119.25 147.13,119.12 147.53,118.99 147.93,118.87 148.32,118.75 148.72,118.63 149.12,118.51 149.52,118.38 149.91,118.26 150.31,118.12 150.71,117.98 151.1,117.84 151.5,117.69 151.9,117.53 152.29,117.37 152.69,117.2 153.09,117.03 153.48,116.85 153.88,116.67 154.28,116.49 154.67,116.31 155.07,116.13 155.47,115.95 155.86,115.78 156.26,115.61 156.66,115.45 157.05,115.29 157.45,115.15 157.85,115.01 158.24,114.88 158.64,114.77 159.04,114.66 159.43,114.57 159.83,114.49 160.23,114.42 160.62,114.37 161.02,114.32 161.42,114.28 161.82,114.25 162.21,114.22 162.61,114.2 163.01,114.18 163.4,114.16 163.8,114.13 164.2,114.11 164.59,114.07 164.99,114.03 165.39,113.98 165.78,113.92 166.18,113.85 166.58,113.76 166.97,113.66 167.37,113.56 167.77,113.44 168.16,113.31 168.56,113.17 168.96,113.03 169.35,112.87 169.75,112.72 170.15,112.55 170.54,112.39 170.94,112.23 171.34,112.06 171.73,111.9 172.13,111.75 172.53,111.59 172.93,111.45 173.32,111.31 173.72,111.17 174.12,111.05 174.51,110.93 174.91,110.82 175.31,110.71 175.7,110.62 176.1,110.52 176.5,110.44 176.89,110.36 177.29,110.28 177.69,110.21 178.08,110.15 178.48,110.08 178.88,110.02 179.27,109.96 179.67,109.91 180.07,109.85 180.46,109.8 180.86,109.75 181.26,109.7 181.65,109.65 182.05,109.6 182.45,109.55 182.84,109.5 183.24,109.45 183.64,109.4 184.03,109.34 184.43,109.29 184.83,109.23 185.23,109.17 185.62,109.11 186.02,109.04 186.42,108.96 186.81,108.88 187.21,108.8 187.61,108.71 188,108.61 188.4,108.5 188.8,108.39 189.19,108.27 189.59,108.14 189.99,108 190.38,107.85 190.78,107.7 191.18,107.54 191.57,107.37 191.97,107.19 192.37,107 192.76,106.8 193.16,106.6 193.56,106.38 193.95,106.16 194.35,105.93 194.75,105.68 195.14,105.43 195.54,105.16 195.94,104.88 196.34,104.58 196.73,104.28 197.13,103.96 197.53,103.63 197.92,103.29 198.32,102.94 198.72,102.58 199.11,102.21 199.51,101.84 199.91,101.46 200.3,101.07 200.7,100.69 201.1,100.31 201.49,99.93 201.89,99.55 202.29,99.18 202.68,98.81 203.08,98.46 203.48,98.11 203.87,97.77 204.27,97.45 204.67,97.13 205.06,96.82 205.46,96.53 205.86,96.24 206.25,95.96 206.65,95.69 207.05,95.42 207.44,95.16 207.84,94.9 208.24,94.64 208.64,94.38 209.03,94.12 209.43,93.86 209.83,93.59 210.22,93.32 210.62,93.05 211.02,92.76 211.41,92.47 211.81,92.18 212.21,91.87 212.6,91.56 213,91.24 213.4,90.91 213.79,90.57 214.19,90.23 214.59,89.89 214.98,89.53 215.38,89.18 215.78,88.82 216.17,88.46 216.57,88.09 216.97,87.73 217.36,87.36 217.76,87 218.16,86.63 218.55,86.27 218.95,85.91 219.35,85.55 219.75,85.19 220.14,84.83 220.54,84.47 220.94,84.12 221.33,83.76 221.73,83.41 222.13,83.06 222.52,82.71 222.92,82.36 223.32,82.01 223.71,81.66 224.11,81.31 224.51,80.97 224.9,80.63 225.3,80.29 225.7,79.95 226.09,79.61 226.49,79.28 226.89,78.95 227.28,78.62 227.68,78.3 228.08,77.98 228.47,77.67 228.87,77.36 229.27,77.05 229.66,76.75 230.06,76.46 230.46,76.16 230.85,75.87 231.25,75.59 231.65,75.3 232.05,75.02 232.44,74.74 232.84,74.46 233.24,74.18 233.63,73.9 234.03,73.61 234.43,73.33 234.82,73.05 235.22,72.76 235.62,72.47 236.01,72.18 236.41,71.89 236.81,71.6 237.2,71.31 237.6,71.01 238,70.72 238.39,70.42 238.79,70.12 239.19,69.82 239.58,69.52 239.98,69.22 240.38,68.91 240.77,68.6 241.17,68.28 241.57,67.96 241.96,67.63 242.36,67.3 242.76,66.95 243.16,66.59 243.55,66.22 243.95,65.85 244.35,65.46 244.74,65.06 245.14,64.64 245.54,64.22 245.93,63.78 246.33,63.34 246.73,62.89 247.12,62.44 247.52,61.98 247.92,61.53 248.31,61.07 248.71,60.63 249.11,60.19 249.5,59.76 249.9,59.34 250.3,58.94 250.69,58.56 251.09,58.2 251.49,57.86 251.88,57.54 252.28,57.24 252.68,56.96 253.07,56.71 253.47,56.49 253.87,56.28 254.26,56.1 254.66,55.94 255.06,55.8 255.46,55.67 255.85,55.56 256.25,55.47 256.65,55.39 257.04,55.32 257.44,55.27 257.84,55.22 258.23,55.18 258.63,55.15 259.03,55.12 259.42,55.1 259.82,55.08 260.22,55.07 260.61,55.06 261.01,55.05 261.41,55.04 261.8,55.04" stroke-dasharray="none" stroke="rgb(152,78,163)" stroke-width="0.75" opacity="1" stroke-opacity="1" fill="none"/>
          </g>
          <g id="Fig:densplot_01.xyplot.lines.group.5.panel.1.1.1">
            <polyline id="Fig:densplot_01.xyplot.lines.group.5.panel.1.1.1.1" points="59.08,55.04 59.47,55.04 59.87,55.05 60.27,55.06 60.66,55.07 61.06,55.09 61.45,55.11 61.85,55.14 62.25,55.17 62.64,55.22 63.04,55.28 63.44,55.36 63.83,55.45 64.23,55.57 64.63,55.72 65.02,55.91 65.42,56.13 65.82,56.41 66.21,56.75 66.61,57.14 67.01,57.62 67.4,58.19 67.8,58.87 68.2,59.67 68.59,60.59 68.99,61.65 69.39,62.87 69.78,64.25 70.18,65.85 70.57,67.65 70.97,69.67 71.37,71.91 71.76,74.37 72.16,77.08 72.56,80.04 72.95,83.3 73.35,86.81 73.75,90.56 74.14,94.56 74.54,98.79 74.94,103.25 75.33,107.93 75.73,112.83 76.13,117.89 76.52,123.09 76.92,128.42 77.32,133.83 77.71,139.32 78.11,144.85 78.51,150.38 78.9,155.88 79.3,161.32 79.69,166.68 80.09,171.93 80.49,177.06 80.88,181.99 81.28,186.74 81.68,191.3 82.07,195.64 82.47,199.75 82.87,203.64 83.26,207.26 83.66,210.6 84.06,213.69 84.45,216.53 84.85,219.12 85.25,221.46 85.64,223.56 86.04,225.39 86.44,226.98 86.83,228.34 87.23,229.5 87.63,230.46 88.02,231.22 88.42,231.8 88.82,232.18 89.21,232.39 89.61,232.45 90,232.37 90.4,232.15 90.8,231.81 91.19,231.34 91.59,230.74 91.99,230.04 92.38,229.25 92.78,228.37 93.18,227.4 93.57,226.37 93.97,225.26 94.37,224.08 94.76,222.86 95.16,221.59 95.56,220.28 95.95,218.95 96.35,217.6 96.75,216.23 97.14,214.85 97.54,213.47 97.94,212.1 98.33,210.75 98.73,209.4 99.12,208.08 99.52,206.78 99.92,205.5 100.31,204.25 100.71,203.02 101.11,201.82 101.5,200.64 101.9,199.49 102.3,198.36 102.69,197.24 103.09,196.14 103.49,195.05 103.88,193.98 104.28,192.91 104.68,191.84 105.07,190.79 105.47,189.73 105.87,188.68 106.26,187.63 106.66,186.58 107.06,185.53 107.45,184.49 107.85,183.44 108.25,182.41 108.64,181.38 109.04,180.35 109.43,179.33 109.83,178.33 110.23,177.33 110.62,176.34 111.02,175.37 111.42,174.41 111.81,173.47 112.21,172.54 112.61,171.62 113,170.72 113.4,169.83 113.8,168.96 114.19,168.1 114.59,167.26 114.99,166.42 115.38,165.6 115.78,164.79 116.18,163.99 116.57,163.2 116.97,162.42 117.37,161.64 117.76,160.87 118.16,160.11 118.55,159.36 118.95,158.61 119.35,157.86 119.74,157.12 120.14,156.38 120.54,155.65 120.93,154.92 121.33,154.19 121.73,153.47 122.12,152.75 122.52,152.03 122.92,151.31 123.31,150.6 123.71,149.89 124.11,149.18 124.5,148.48 124.9,147.78 125.3,147.08 125.69,146.38 126.09,145.68 126.49,144.99 126.88,144.3 127.28,143.61 127.67,142.92 128.07,142.24 128.47,141.56 128.86,140.88 129.26,140.21 129.66,139.55 130.05,138.88 130.45,138.23 130.85,137.58 131.24,136.95 131.64,136.32 132.04,135.7 132.43,135.09 132.83,134.5 133.23,133.92 133.62,133.35 134.02,132.8 134.42,132.26 134.81,131.74 135.21,131.23 135.61,130.73 136,130.26 136.4,129.79 136.8,129.34 137.19,128.91 137.59,128.49 137.98,128.08 138.38,127.69 138.78,127.3 139.17,126.93 139.57,126.56 139.97,126.21 140.36,125.87 140.76,125.54 141.16,125.21 141.55,124.9 141.95,124.6 142.35,124.3 142.74,124.02 143.14,123.75 143.54,123.49 143.93,123.23 144.33,122.99 144.73,122.76 145.12,122.54 145.52,122.33 145.92,122.12 146.31,121.93 146.71,121.73 147.1,121.55 147.5,121.37 147.9,121.19 148.29,121.01 148.69,120.83 149.09,120.65 149.48,120.46 149.88,120.28 150.28,120.08 150.67,119.89 151.07,119.68 151.47,119.48 151.86,119.26 152.26,119.05 152.66,118.82 153.05,118.6 153.45,118.37 153.85,118.13 154.24,117.9 154.64,117.67 155.04,117.44 155.43,117.21 155.83,116.98 156.23,116.76 156.62,116.55 157.02,116.34 157.41,116.14 157.81,115.95 158.21,115.77 158.6,115.61 159,115.46 159.4,115.32 159.79,115.19 160.19,115.07 160.59,114.97 160.98,114.88 161.38,114.81 161.78,114.75 162.17,114.69 162.57,114.65 162.97,114.61 163.36,114.57 163.76,114.54 164.16,114.51 164.55,114.48 164.95,114.45 165.35,114.41 165.74,114.37 166.14,114.31 166.53,114.24 166.93,114.16 167.33,114.07 167.72,113.97 168.12,113.85 168.52,113.72 168.91,113.58 169.31,113.42 169.71,113.25 170.1,113.07 170.5,112.88 170.9,112.69 171.29,112.48 171.69,112.28 172.09,112.07 172.48,111.85 172.88,111.64 173.28,111.43 173.67,111.22 174.07,111.01 174.47,110.81 174.86,110.62 175.26,110.43 175.65,110.25 176.05,110.07 176.45,109.9 176.84,109.75 177.24,109.6 177.64,109.46 178.03,109.33 178.43,109.21 178.83,109.1 179.22,109 179.62,108.91 180.02,108.83 180.41,108.76 180.81,108.69 181.21,108.64 181.6,108.59 182,108.55 182.4,108.51 182.79,108.48 183.19,108.45 183.59,108.43 183.98,108.41 184.38,108.39 184.78,108.36 185.17,108.34 185.57,108.31 185.96,108.28 186.36,108.24 186.76,108.2 187.15,108.15 187.55,108.09 187.95,108.02 188.34,107.95 188.74,107.86 189.14,107.77 189.53,107.66 189.93,107.55 190.33,107.42 190.72,107.27 191.12,107.12 191.52,106.96 191.91,106.78 192.31,106.59 192.71,106.38 193.1,106.16 193.5,105.93 193.9,105.69 194.29,105.43 194.69,105.16 195.08,104.88 195.48,104.58 195.88,104.27 196.27,103.95 196.67,103.62 197.07,103.29 197.46,102.94 197.86,102.59 198.26,102.23 198.65,101.86 199.05,101.49 199.45,101.12 199.84,100.75 200.24,100.39 200.64,100.02 201.03,99.65 201.43,99.29 201.83,98.94 202.22,98.59 202.62,98.24 203.02,97.9 203.41,97.57 203.81,97.24 204.2,96.92 204.6,96.61 205,96.31 205.39,96 205.79,95.71 206.19,95.42 206.58,95.13 206.98,94.85 207.38,94.57 207.77,94.29 208.17,94.01 208.57,93.73 208.96,93.45 209.36,93.17 209.76,92.88 210.15,92.6 210.55,92.31 210.95,92.02 211.34,91.72 211.74,91.42 212.14,91.11 212.53,90.8 212.93,90.48 213.33,90.16 213.72,89.83 214.12,89.5 214.51,89.16 214.91,88.82 215.31,88.47 215.7,88.12 216.1,87.77 216.5,87.42 216.89,87.06 217.29,86.7 217.69,86.34 218.08,85.99 218.48,85.63 218.88,85.27 219.27,84.91 219.67,84.56 220.07,84.2 220.46,83.85 220.86,83.5 221.26,83.16 221.65,82.81 222.05,82.47 222.45,82.13 222.84,81.79 223.24,81.45 223.63,81.12 224.03,80.79 224.43,80.46 224.82,80.13 225.22,79.81 225.62,79.48 226.01,79.16 226.41,78.84 226.81,78.52 227.2,78.2 227.6,77.89 228,77.57 228.39,77.26 228.79,76.96 229.19,76.65 229.58,76.35 229.98,76.05 230.38,75.75 230.77,75.46 231.17,75.16 231.57,74.87 231.96,74.58 232.36,74.3 232.76,74.01 233.15,73.73 233.55,73.45 233.94,73.17 234.34,72.89 234.74,72.61 235.13,72.33 235.53,72.05 235.93,71.77 236.32,71.49 236.72,71.21 237.12,70.93 237.51,70.65 237.91,70.37 238.31,70.09 238.7,69.8 239.1,69.51 239.5,69.23 239.89,68.93 240.29,68.64 240.69,68.34 241.08,68.03 241.48,67.72 241.88,67.39 242.27,67.07 242.67,66.73 243.06,66.38 243.46,66.02 243.86,65.64 244.25,65.26 244.65,64.87 245.05,64.46 245.44,64.04 245.84,63.62 246.24,63.18 246.63,62.74 247.03,62.3 247.43,61.85 247.82,61.4 248.22,60.95 248.62,60.52 249.01,60.08 249.41,59.66 249.81,59.26 250.2,58.86 250.6,58.49 251,58.13 251.39,57.8 251.79,57.48 252.18,57.19 252.58,56.92 252.98,56.68 253.37,56.45 253.77,56.25 254.17,56.08 254.56,55.92 254.96,55.78 255.36,55.65 255.75,55.55 256.15,55.46 256.55,55.38 256.94,55.31 257.34,55.26 257.74,55.21 258.13,55.17 258.53,55.14 258.93,55.12 259.32,55.1 259.72,55.08 260.12,55.07 260.51,55.06 260.91,55.05 261.31,55.04 261.7,55.04" stroke-dasharray="none" stroke="rgb(255,127,0)" stroke-width="0.75" opacity="1" stroke-opacity="1" fill="none"/>
          </g>
          <g id="Fig:densplot_01.xyplot.lines.group.6.panel.1.1.1">
            <polyline id="Fig:densplot_01.xyplot.lines.group.6.panel.1.1.1.1" points="59,55.04 59.4,55.04 59.79,55.05 60.19,55.06 60.59,55.08 60.98,55.09 61.38,55.12 61.78,55.15 62.17,55.19 62.57,55.24 62.97,55.3 63.36,55.38 63.76,55.49 64.16,55.61 64.55,55.77 64.95,55.96 65.35,56.2 65.74,56.49 66.14,56.84 66.54,57.26 66.94,57.75 67.33,58.33 67.73,59.02 68.13,59.84 68.52,60.78 68.92,61.86 69.32,63.1 69.71,64.5 70.11,66.09 70.51,67.91 70.9,69.94 71.3,72.18 71.7,74.66 72.09,77.37 72.49,80.32 72.89,83.54 73.28,87.03 73.68,90.77 74.08,94.75 74.47,98.95 74.87,103.38 75.27,108.02 75.66,112.87 76.06,117.9 76.46,123.08 76.85,128.38 77.25,133.77 77.65,139.24 78.04,144.75 78.44,150.28 78.84,155.79 79.23,161.26 79.63,166.65 80.03,171.94 80.42,177.11 80.82,182.13 81.22,186.96 81.61,191.59 82.01,196.02 82.41,200.24 82.81,204.22 83.2,207.96 83.6,211.43 84,214.62 84.39,217.56 84.79,220.24 85.19,222.68 85.58,224.86 85.98,226.8 86.38,228.46 86.77,229.88 87.17,231.08 87.57,232.08 87.96,232.87 88.36,233.47 88.76,233.88 89.15,234.09 89.55,234.15 89.95,234.07 90.34,233.84 90.74,233.5 91.14,233.03 91.53,232.45 91.93,231.76 92.33,230.99 92.72,230.14 93.12,229.21 93.52,228.22 93.91,227.17 94.31,226.06 94.71,224.9 95.1,223.69 95.5,222.45 95.9,221.18 96.29,219.87 96.69,218.54 97.09,217.18 97.48,215.81 97.88,214.42 98.28,213.03 98.68,211.62 99.07,210.21 99.47,208.8 99.87,207.38 100.26,205.97 100.66,204.57 101.06,203.18 101.45,201.8 101.85,200.42 102.25,199.07 102.64,197.74 103.04,196.42 103.44,195.13 103.83,193.86 104.23,192.61 104.63,191.38 105.02,190.19 105.42,189.03 105.82,187.89 106.21,186.78 106.61,185.7 107.01,184.64 107.4,183.61 107.8,182.61 108.2,181.63 108.59,180.67 108.99,179.73 109.39,178.8 109.78,177.89 110.18,176.99 110.58,176.1 110.97,175.22 111.37,174.34 111.77,173.46 112.16,172.59 112.56,171.71 112.96,170.84 113.35,169.96 113.75,169.08 114.15,168.21 114.55,167.33 114.94,166.45 115.34,165.58 115.74,164.71 116.13,163.84 116.53,162.99 116.93,162.14 117.32,161.3 117.72,160.48 118.12,159.67 118.51,158.87 118.91,158.09 119.31,157.33 119.7,156.57 120.1,155.84 120.5,155.11 120.89,154.41 121.29,153.71 121.69,153.03 122.08,152.36 122.48,151.69 122.88,151.03 123.27,150.38 123.67,149.74 124.07,149.09 124.46,148.45 124.86,147.81 125.26,147.16 125.65,146.52 126.05,145.86 126.45,145.21 126.84,144.54 127.24,143.88 127.64,143.2 128.03,142.52 128.43,141.84 128.83,141.14 129.22,140.45 129.62,139.75 130.02,139.05 130.42,138.35 130.81,137.66 131.21,136.96 131.61,136.27 132,135.59 132.4,134.92 132.8,134.25 133.19,133.6 133.59,132.96 133.99,132.33 134.38,131.72 134.78,131.12 135.18,130.54 135.57,129.97 135.97,129.42 136.37,128.88 136.76,128.35 137.16,127.85 137.56,127.35 137.95,126.87 138.35,126.4 138.75,125.95 139.14,125.51 139.54,125.08 139.94,124.67 140.33,124.27 140.73,123.89 141.13,123.52 141.52,123.17 141.92,122.84 142.32,122.52 142.71,122.22 143.11,121.93 143.51,121.66 143.9,121.41 144.3,121.17 144.7,120.94 145.09,120.73 145.49,120.53 145.89,120.34 146.29,120.16 146.68,119.98 147.08,119.82 147.48,119.65 147.87,119.5 148.27,119.34 148.67,119.18 149.06,119.02 149.46,118.86 149.86,118.69 150.25,118.52 150.65,118.34 151.05,118.16 151.44,117.97 151.84,117.77 152.24,117.56 152.63,117.35 153.03,117.13 153.43,116.91 153.82,116.68 154.22,116.44 154.62,116.21 155.01,115.97 155.41,115.74 155.81,115.51 156.2,115.28 156.6,115.06 157,114.85 157.39,114.64 157.79,114.45 158.19,114.27 158.58,114.1 158.98,113.95 159.38,113.81 159.77,113.69 160.17,113.58 160.57,113.48 160.96,113.4 161.36,113.33 161.76,113.27 162.15,113.21 162.55,113.17 162.95,113.13 163.35,113.1 163.74,113.08 164.14,113.05 164.54,113.02 164.93,112.99 165.33,112.95 165.73,112.91 166.12,112.87 166.52,112.81 166.92,112.75 167.31,112.68 167.71,112.6 168.11,112.51 168.5,112.41 168.9,112.3 169.3,112.18 169.69,112.06 170.09,111.93 170.49,111.8 170.88,111.66 171.28,111.53 171.68,111.39 172.07,111.25 172.47,111.12 172.87,110.98 173.26,110.86 173.66,110.73 174.06,110.62 174.45,110.51 174.85,110.41 175.25,110.31 175.64,110.22 176.04,110.14 176.44,110.07 176.83,110 177.23,109.94 177.63,109.88 178.02,109.83 178.42,109.79 178.82,109.74 179.22,109.71 179.61,109.67 180.01,109.64 180.41,109.61 180.8,109.57 181.2,109.54 181.6,109.51 181.99,109.48 182.39,109.44 182.79,109.4 183.18,109.36 183.58,109.31 183.98,109.25 184.37,109.19 184.77,109.11 185.17,109.03 185.56,108.94 185.96,108.83 186.36,108.72 186.75,108.6 187.15,108.46 187.55,108.32 187.94,108.17 188.34,108.01 188.74,107.84 189.13,107.66 189.53,107.48 189.93,107.3 190.32,107.11 190.72,106.92 191.12,106.73 191.51,106.54 191.91,106.34 192.31,106.15 192.7,105.95 193.1,105.75 193.5,105.56 193.89,105.35 194.29,105.15 194.69,104.93 195.09,104.71 195.48,104.48 195.88,104.25 196.28,104 196.67,103.74 197.07,103.46 197.47,103.18 197.86,102.87 198.26,102.56 198.66,102.22 199.05,101.88 199.45,101.53 199.85,101.16 200.24,100.79 200.64,100.4 201.04,100.01 201.43,99.62 201.83,99.23 202.23,98.84 202.62,98.46 203.02,98.07 203.42,97.7 203.81,97.34 204.21,96.98 204.61,96.64 205,96.3 205.4,95.98 205.8,95.66 206.19,95.36 206.59,95.07 206.99,94.78 207.38,94.5 207.78,94.23 208.18,93.96 208.57,93.7 208.97,93.44 209.37,93.17 209.76,92.91 210.16,92.65 210.56,92.38 210.96,92.11 211.35,91.84 211.75,91.56 212.15,91.28 212.54,90.99 212.94,90.7 213.34,90.41 213.73,90.1 214.13,89.8 214.53,89.49 214.92,89.17 215.32,88.85 215.72,88.53 216.11,88.21 216.51,87.87 216.91,87.54 217.3,87.2 217.7,86.86 218.1,86.51 218.49,86.17 218.89,85.81 219.29,85.46 219.68,85.1 220.08,84.74 220.48,84.38 220.87,84.01 221.27,83.65 221.67,83.28 222.06,82.91 222.46,82.55 222.86,82.18 223.25,81.82 223.65,81.46 224.05,81.1 224.44,80.75 224.84,80.4 225.24,80.05 225.63,79.71 226.03,79.38 226.43,79.05 226.83,78.73 227.22,78.42 227.62,78.11 228.02,77.8 228.41,77.51 228.81,77.22 229.21,76.93 229.6,76.65 230,76.37 230.4,76.09 230.79,75.82 231.19,75.54 231.59,75.27 231.98,75 232.38,74.73 232.78,74.45 233.17,74.18 233.57,73.91 233.97,73.63 234.36,73.35 234.76,73.07 235.16,72.78 235.55,72.5 235.95,72.21 236.35,71.92 236.74,71.62 237.14,71.33 237.54,71.03 237.93,70.74 238.33,70.44 238.73,70.14 239.12,69.83 239.52,69.53 239.92,69.22 240.31,68.91 240.71,68.59 241.11,68.27 241.5,67.94 241.9,67.6 242.3,67.26 242.7,66.91 243.09,66.55 243.49,66.18 243.89,65.8 244.28,65.41 244.68,65 245.08,64.59 245.47,64.17 245.87,63.73 246.27,63.29 246.66,62.85 247.06,62.4 247.46,61.94 247.85,61.49 248.25,61.04 248.65,60.6 249.04,60.16 249.44,59.74 249.84,59.32 250.23,58.93 250.63,58.54 251.03,58.18 251.42,57.85 251.82,57.53 252.22,57.23 252.61,56.96 253.01,56.71 253.41,56.48 253.8,56.28 254.2,56.1 254.6,55.94 254.99,55.8 255.39,55.67 255.79,55.56 256.18,55.47 256.58,55.39 256.98,55.32 257.37,55.26 257.77,55.22 258.17,55.18 258.57,55.15 258.96,55.12 259.36,55.1 259.76,55.08 260.15,55.07 260.55,55.06 260.95,55.05 261.34,55.04 261.74,55.04" stroke-dasharray="none" stroke="rgb(255,255,51)" stroke-width="0.75" opacity="1" stroke-opacity="1" fill="none"/>
          </g>
        </g>
        <g id="Fig:densplot_01.panel.1.1.off.vp.2">
          <g id="Fig:densplot_01.border.panel.1.1.1">
            <rect id="Fig:densplot_01.border.panel.1.1.1.1" x="44.8" y="42.19" width="231.2" height="209.24" transform="" stroke="rgb(0,0,0)" stroke-dasharray="none" stroke-width="0.75" opacity="1" fill="none" stroke-opacity="1" fill-opacity="0"/>
          </g>
        </g>
        <g id="Fig:densplot_01..1"/>
      </g>
    </g>
  </g>
</svg>